<svg width="50" height="50" viewBox="0 0 50 50" fill="none" xmlns="http://www.w3.org/2000/svg">
<g clip-path="url(#clip0_1_4)">
<rect x="22" y="15" width="6" height="20" fill="white"/>
<path d="M29.4764 12C29.4764 11.1716 28.8048 10.5 27.9764 10.5C27.148 10.5 26.4764 11.1716 26.4764 12L29.4764 12ZM24.1193 16.7619C24.1193 15.9335 23.4477 15.2619 22.6193 15.2619C21.7908 15.2619 21.1193 15.9335 21.1193 16.7619L24.1193 16.7619ZM26.4764 12L26.4764 25.0952L29.4764 25.0952L29.4764 12L26.4764 12ZM21.1193 16.7619C21.1193 16.7683 21.1193 16.7746 21.1193 16.781C21.1193 16.7874 21.1193 16.7937 21.1193 16.8001C21.1193 16.8065 21.1193 16.8129 21.1193 16.8193C21.1193 16.8257 21.1193 16.8321 21.1193 16.8385C21.1193 16.8449 21.1193 16.8513 21.1193 16.8578C21.1193 16.8642 21.1193 16.8706 21.1193 16.8771C21.1193 16.8835 21.1193 16.8899 21.1193 16.8964C21.1193 16.9028 21.1193 16.9093 21.1193 16.9158C21.1193 16.9222 21.1193 16.9287 21.1193 16.9352C21.1193 16.9417 21.1193 16.9481 21.1193 16.9546C21.1193 16.9611 21.1193 16.9676 21.1193 16.9741C21.1193 16.9806 21.1193 16.9871 21.1193 16.9936C21.1193 17.0002 21.1193 17.0067 21.1193 17.0132C21.1193 17.0197 21.1193 17.0263 21.1193 17.0328C21.1193 17.0394 21.1193 17.0459 21.1193 17.0525C21.1193 17.059 21.1193 17.0656 21.1193 17.0721C21.1193 17.0787 21.1193 17.0853 21.1193 17.0919C21.1193 17.0984 21.1193 17.105 21.1193 17.1116C21.1193 17.1182 21.1193 17.1248 21.1193 17.1314C21.1193 17.138 21.1193 17.1446 21.1193 17.1512C21.1193 17.1578 21.1193 17.1645 21.1193 17.1711C21.1193 17.1777 21.1193 17.1843 21.1193 17.191C21.1193 17.1976 21.1193 17.2043 21.1193 17.2109C21.1193 17.2176 21.1193 17.2242 21.1193 17.2309C21.1193 17.2375 21.1193 17.2442 21.1193 17.2509C21.1193 17.2575 21.1193 17.2642 21.1193 17.2709C21.1193 17.2776 21.1193 17.2843 21.1193 17.291C21.1193 17.2977 21.1193 17.3044 21.1193 17.3111C21.1193 17.3178 21.1193 17.3245 21.1193 17.3312C21.1193 17.3379 21.1193 17.3446 21.1193 17.3514C21.1193 17.3581 21.1193 17.3648 21.1193 17.3716C21.1193 17.3783 21.1193 17.385 21.1193 17.3918C21.1193 17.3985 21.1193 17.4053 21.1193 17.4121C21.1193 17.4188 21.1193 17.4256 21.1193 17.4324C21.1193 17.4391 21.1193 17.4459 21.1193 17.4527C21.1193 17.4595 21.1193 17.4662 21.1193 17.473C21.1193 17.4798 21.1193 17.4866 21.1193 17.4934C21.1193 17.5002 21.1193 17.507 21.1193 17.5138C21.1193 17.5207 21.1193 17.5275 21.1193 17.5343C21.1193 17.5411 21.1193 17.5479 21.1193 17.5548C21.1193 17.5616 21.1193 17.5684 21.1193 17.5753C21.1193 17.5821 21.1193 17.589 21.1193 17.5958C21.1193 17.6027 21.1193 17.6095 21.1193 17.6164C21.1193 17.6232 21.1193 17.6301 21.1193 17.637C21.1193 17.6438 21.1193 17.6507 21.1193 17.6576C21.1193 17.6645 21.1193 17.6713 21.1193 17.6782C21.1193 17.6851 21.1193 17.692 21.1193 17.6989C21.1193 17.7058 21.1193 17.7127 21.1193 17.7196C21.1193 17.7265 21.1193 17.7334 21.1193 17.7403C21.1193 17.7473 21.1193 17.7542 21.1193 17.7611C21.1193 17.768 21.1193 17.775 21.1193 17.7819C21.1193 17.7888 21.1193 17.7958 21.1193 17.8027C21.1193 17.8096 21.1193 17.8166 21.1193 17.8235C21.1193 17.8305 21.1193 17.8374 21.1193 17.8444C21.1193 17.8514 21.1193 17.8583 21.1193 17.8653C21.1193 17.8722 21.1193 17.8792 21.1193 17.8862C21.1193 17.8932 21.1193 17.9001 21.1193 17.9071C21.1193 17.9141 21.1193 17.9211 21.1193 17.9281C21.1193 17.9351 21.1193 17.9421 21.1193 17.9491C21.1193 17.9561 21.1193 17.9631 21.1193 17.9701C21.1193 17.9771 21.1193 17.9841 21.1193 17.9911C21.1193 17.9981 21.1193 18.0051 21.1193 18.0122C21.1193 18.0192 21.1193 18.0262 21.1193 18.0332C21.1193 18.0403 21.1193 18.0473 21.1193 18.0543C21.1193 18.0614 21.1193 18.0684 21.1193 18.0755C21.1193 18.0825 21.1193 18.0895 21.1193 18.0966C21.1193 18.1037 21.1193 18.1107 21.1193 18.1178C21.1193 18.1248 21.1193 18.1319 21.1193 18.1389C21.1193 18.146 21.1193 18.1531 21.1193 18.1602C21.1193 18.1672 21.1193 18.1743 21.1193 18.1814C21.1193 18.1885 21.1193 18.1955 21.1193 18.2026C21.1193 18.2097 21.1193 18.2168 21.1193 18.2239C21.1193 18.231 21.1193 18.2381 21.1193 18.2452C21.1193 18.2523 21.1193 18.2594 21.1193 18.2665C21.1193 18.2736 21.1193 18.2807 21.1193 18.2878C21.1193 18.2949 21.1193 18.302 21.1193 18.3091C21.1193 18.3163 21.1193 18.3234 21.1193 18.3305C21.1193 18.3376 21.1193 18.3448 21.1193 18.3519C21.1193 18.359 21.1193 18.3661 21.1193 18.3733C21.1193 18.3804 21.1193 18.3876 21.1193 18.3947C21.1193 18.4018 21.1193 18.409 21.1193 18.4161C21.1193 18.4233 21.1193 18.4304 21.1193 18.4376C21.1193 18.4447 21.1193 18.4519 21.1193 18.459C21.1193 18.4662 21.1193 18.4734 21.1193 18.4805C21.1193 18.4877 21.1193 18.4948 21.1193 18.502C21.1193 18.5092 21.1193 18.5163 21.1193 18.5235C21.1193 18.5307 21.1193 18.5379 21.1193 18.545C21.1193 18.5522 21.1193 18.5594 21.1193 18.5666C21.1193 18.5738 21.1193 18.581 21.1193 18.5881C21.1193 18.5953 21.1193 18.6025 21.1193 18.6097C21.1193 18.6169 21.1193 18.6241 21.1193 18.6313C21.1193 18.6385 21.1193 18.6457 21.1193 18.6529C21.1193 18.6601 21.1193 18.6673 21.1193 18.6745C21.1193 18.6817 21.1193 18.6889 21.1193 18.6961C21.1193 18.7033 21.1193 18.7106 21.1193 18.7178C21.1193 18.725 21.1193 18.7322 21.1193 18.7394C21.1193 18.7466 21.1193 18.7539 21.1193 18.7611C21.1193 18.7683 21.1193 18.7755 21.1193 18.7828C21.1193 18.79 21.1193 18.7972 21.1193 18.8044C21.1193 18.8117 21.1193 18.8189 21.1193 18.8261C21.1193 18.8334 21.1193 18.8406 21.1193 18.8478C21.1193 18.8551 21.1193 18.8623 21.1193 18.8696C21.1193 18.8768 21.1193 18.884 21.1193 18.8913C21.1193 18.8985 21.1193 18.9058 21.1193 18.913C21.1193 18.9203 21.1193 18.9275 21.1193 18.9348C21.1193 18.942 21.1193 18.9493 21.1193 18.9565C21.1193 18.9638 21.1193 18.971 21.1193 18.9783C21.1193 18.9856 21.1193 18.9928 21.1193 19.0001C21.1193 19.0073 21.1193 19.0146 21.1193 19.0219C21.1193 19.0291 21.1193 19.0364 21.1193 19.0436C21.1193 19.0509 21.1193 19.0582 21.1193 19.0654C21.1193 19.0727 21.1193 19.08 21.1193 19.0873C21.1193 19.0945 21.1193 19.1018 21.1193 19.1091C21.1193 19.1163 21.1193 19.1236 21.1193 19.1309C21.1193 19.1382 21.1193 19.1454 21.1193 19.1527C21.1193 19.16 21.1193 19.1673 21.1193 19.1745C21.1193 19.1818 21.1193 19.1891 21.1193 19.1964C21.1193 19.2037 21.1193 19.2109 21.1193 19.2182C21.1193 19.2255 21.1193 19.2328 21.1193 19.2401C21.1193 19.2474 21.1193 19.2547 21.1193 19.2619C21.1193 19.2692 21.1193 19.2765 21.1193 19.2838C21.1193 19.2911 21.1193 19.2984 21.1193 19.3057C21.1193 19.313 21.1193 19.3202 21.1193 19.3275C21.1193 19.3348 21.1193 19.3421 21.1193 19.3494C21.1193 19.3567 21.1193 19.364 21.1193 19.3713C21.1193 19.3786 21.1193 19.3859 21.1193 19.3932C21.1193 19.4005 21.1193 19.4077 21.1193 19.415C21.1193 19.4223 21.1193 19.4296 21.1193 19.4369C21.1193 19.4442 21.1193 19.4515 21.1193 19.4588C21.1193 19.4661 21.1193 19.4734 21.1193 19.4807C21.1193 19.488 21.1193 19.4953 21.1193 19.5026C21.1193 19.5099 21.1193 19.5172 21.1193 19.5245C21.1193 19.5318 21.1193 19.5391 21.1193 19.5464C21.1193 19.5537 21.1193 19.561 21.1193 19.5683C21.1193 19.5756 21.1193 19.5829 21.1193 19.5902C21.1193 19.5975 21.1193 19.6048 21.1193 19.6121C21.1193 19.6194 21.1193 19.6267 21.1193 19.634C21.1193 19.6413 21.1193 19.6485 21.1193 19.6558C21.1193 19.6631 21.1193 19.6704 21.1193 19.6777C21.1193 19.685 21.1193 19.6923 21.1193 19.6996C21.1193 19.7069 21.1193 19.7142 21.1193 19.7215C21.1193 19.7288 21.1193 19.7361 21.1193 19.7434C21.1193 19.7507 21.1193 19.758 21.1193 19.7653C21.1193 19.7726 21.1193 19.7799 21.1193 19.7872C21.1193 19.7945 21.1193 19.8018 21.1193 19.8091C21.1193 19.8164 21.1193 19.8236 21.1193 19.8309C21.1193 19.8382 21.1193 19.8455 21.1193 19.8528C21.1193 19.8601 21.1193 19.8674 21.1193 19.8747C21.1193 19.882 21.1193 19.8893 21.1193 19.8966C21.1193 19.9038 21.1193 19.9111 21.1193 19.9184C21.1193 19.9257 21.1193 19.933 21.1193 19.9403C21.1193 19.9476 21.1193 19.9548 21.1193 19.9621C21.1193 19.9694 21.1193 19.9767 21.1193 19.984C21.1193 19.9913 21.1193 19.9985 21.1193 20.0058C21.1193 20.0131 21.1193 20.0204 21.1193 20.0277C21.1193 20.0349 21.1193 20.0422 21.1193 20.0495C21.1193 20.0568 21.1193 20.064 21.1193 20.0713C21.1193 20.0786 21.1193 20.0859 21.1193 20.0931C21.1193 20.1004 21.1193 20.1077 21.1193 20.1149C21.1193 20.1222 21.1193 20.1295 21.1193 20.1367C21.1193 20.144 21.1193 20.1513 21.1193 20.1585C21.1193 20.1658 21.1193 20.1731 21.1193 20.1803C21.1193 20.1876 21.1193 20.1949 21.1193 20.2021C21.1193 20.2094 21.1193 20.2166 21.1193 20.2239C21.1193 20.2311 21.1193 20.2384 21.1193 20.2456C21.1193 20.2529 21.1193 20.2601 21.1193 20.2674C21.1193 20.2746 21.1193 20.2819 21.1193 20.2891C21.1193 20.2964 21.1193 20.3036 21.1193 20.3109C21.1193 20.3181 21.1193 20.3254 21.1193 20.3326C21.1193 20.3398 21.1193 20.3471 21.1193 20.3543C21.1193 20.3616 21.1193 20.3688 21.1193 20.376C21.1193 20.3833 21.1193 20.3905 21.1193 20.3977C21.1193 20.4049 21.1193 20.4122 21.1193 20.4194C21.1193 20.4266 21.1193 20.4338 21.1193 20.4411C21.1193 20.4483 21.1193 20.4555 21.1193 20.4627C21.1193 20.4699 21.1193 20.4772 21.1193 20.4844C21.1193 20.4916 21.1193 20.4988 21.1193 20.506C21.1193 20.5132 21.1193 20.5204 21.1193 20.5276C21.1193 20.5348 21.1193 20.542 21.1193 20.5492C21.1193 20.5564 21.1193 20.5636 21.1193 20.5708C21.1193 20.578 21.1193 20.5852 21.1193 20.5924C21.1193 20.5996 21.1193 20.6068 21.1193 20.614C21.1193 20.6211 21.1193 20.6283 21.1193 20.6355C21.1193 20.6427 21.1193 20.6499 21.1193 20.657C21.1193 20.6642 21.1193 20.6714 21.1193 20.6786C21.1193 20.6857 21.1193 20.6929 21.1193 20.7001C21.1193 20.7072 21.1193 20.7144 21.1193 20.7216C21.1193 20.7287 21.1193 20.7359 21.1193 20.743C21.1193 20.7502 21.1193 20.7573 21.1193 20.7645C21.1193 20.7716 21.1193 20.7788 21.1193 20.7859C21.1193 20.7931 21.1193 20.8002 21.1193 20.8074C21.1193 20.8145 21.1193 20.8216 21.1193 20.8288C21.1193 20.8359 21.1193 20.843 21.1193 20.8502C21.1193 20.8573 21.1193 20.8644 21.1193 20.8715C21.1193 20.8786 21.1193 20.8858 21.1193 20.8929C21.1193 20.9 21.1193 20.9071 21.1193 20.9142C21.1193 20.9213 21.1193 20.9284 21.1193 20.9355C21.1193 20.9426 21.1193 20.9497 21.1193 20.9568C21.1193 20.9639 21.1193 20.971 21.1193 20.9781C21.1193 20.9852 21.1193 20.9923 21.1193 20.9994C21.1193 21.0065 21.1193 21.0135 21.1193 21.0206C21.1193 21.0277 21.1193 21.0348 21.1193 21.0418C21.1193 21.0489 21.1193 21.056 21.1193 21.063C21.1193 21.0701 21.1193 21.0771 21.1193 21.0842C21.1193 21.0913 21.1193 21.0983 21.1193 21.1054C21.1193 21.1124 21.1193 21.1194 21.1193 21.1265C21.1193 21.1335 21.1193 21.1406 21.1193 21.1476C21.1193 21.1546 21.1193 21.1617 21.1193 21.1687C21.1193 21.1757 21.1193 21.1827 21.1193 21.1898C21.1193 21.1968 21.1193 21.2038 21.1193 21.2108C21.1193 21.2178 21.1193 21.2248 21.1193 21.2318C21.1193 21.2388 21.1193 21.2458 21.1193 21.2528C21.1193 21.2598 21.1193 21.2668 21.1193 21.2738C21.1193 21.2808 21.1193 21.2878 21.1193 21.2948C21.1193 21.3017 21.1193 21.3087 21.1193 21.3157C21.1193 21.3227 21.1193 21.3296 21.1193 21.3366C21.1193 21.3435 21.1193 21.3505 21.1193 21.3575C21.1193 21.3644 21.1193 21.3714 21.1193 21.3783C21.1193 21.3853 21.1193 21.3922 21.1193 21.3991C21.1193 21.4061 21.1193 21.413 21.1193 21.4199C21.1193 21.4269 21.1193 21.4338 21.1193 21.4407C21.1193 21.4476 21.1193 21.4545 21.1193 21.4615C21.1193 21.4684 21.1193 21.4753 21.1193 21.4822C21.1193 21.4891 21.1193 21.496 21.1193 21.5029C21.1193 21.5098 21.1193 21.5167 21.1193 21.5235C21.1193 21.5304 21.1193 21.5373 21.1193 21.5442C21.1193 21.5511 21.1193 21.5579 21.1193 21.5648C21.1193 21.5717 21.1193 21.5785 21.1193 21.5854C21.1193 21.5922 21.1193 21.5991 21.1193 21.6059C21.1193 21.6128 21.1193 21.6196 21.1193 21.6265C21.1193 21.6333 21.1193 21.6401 21.1193 21.647C21.1193 21.6538 21.1193 21.6606 21.1193 21.6674C21.1193 21.6742 21.1193 21.681 21.1193 21.6879C21.1193 21.6947 21.1193 21.7015 21.1193 21.7083C21.1193 21.7151 21.1193 21.7219 21.1193 21.7286C21.1193 21.7354 21.1193 21.7422 21.1193 21.749C21.1193 21.7558 21.1193 21.7625 21.1193 21.7693C21.1193 21.7761 21.1193 21.7828 21.1193 21.7896C21.1193 21.7963 21.1193 21.8031 21.1193 21.8098C21.1193 21.8166 21.1193 21.8233 21.1193 21.8301C21.1193 21.8368 21.1193 21.8435 21.1193 21.8502C21.1193 21.857 21.1193 21.8637 21.1193 21.8704C21.1193 21.8771 21.1193 21.8838 21.1193 21.8905C21.1193 21.8972 21.1193 21.9039 21.1193 21.9106C21.1193 21.9173 21.1193 21.924 21.1193 21.9307C21.1193 21.9373 21.1193 21.944 21.1193 21.9507C21.1193 21.9573 21.1193 21.964 21.1193 21.9707C21.1193 21.9773 21.1193 21.984 21.1193 21.9906C21.1193 21.9973 21.1193 22.0039 21.1193 22.0105C21.1193 22.0172 21.1193 22.0238 21.1193 22.0304C21.1193 22.037 21.1193 22.0437 21.1193 22.0503C21.1193 22.0569 21.1193 22.0635 21.1193 22.0701C21.1193 22.0767 21.1193 22.0833 21.1193 22.0899C21.1193 22.0964 21.1193 22.103 21.1193 22.1096C21.1193 22.1162 21.1193 22.1227 21.1193 22.1293C21.1193 22.1359 21.1193 22.1424 21.1193 22.149C21.1193 22.1555 21.1193 22.1621 21.1193 22.1686C21.1193 22.1751 21.1193 22.1817 21.1193 22.1882C21.1193 22.1947 21.1193 22.2012 21.1193 22.2077C21.1193 22.2142 21.1193 22.2207 21.1193 22.2272C21.1193 22.2337 21.1193 22.2402 21.1193 22.2467C21.1193 22.2532 21.1193 22.2597 21.1193 22.2662C21.1193 22.2726 21.1193 22.2791 21.1193 22.2856C21.1193 22.292 21.1193 22.2985 21.1193 22.3049C21.1193 22.3114 21.1193 22.3178 21.1193 22.3242C21.1193 22.3307 21.1193 22.3371 21.1193 22.3435C21.1193 22.3499 21.1193 22.3563 21.1193 22.3628C21.1193 22.3692 21.1193 22.3756 21.1193 22.382C21.1193 22.3883 21.1193 22.3947 21.1193 22.4011C21.1193 22.4075 21.1193 22.4139 21.1193 22.4202C21.1193 22.4266 21.1193 22.4329 21.1193 22.4393C21.1193 22.4457 21.1193 22.452 21.1193 22.4583C21.1193 22.4647 21.1193 22.471 21.1193 22.4773C21.1193 22.4836 21.1193 22.49 21.1193 22.4963C21.1193 22.5026 21.1193 22.5089 21.1193 22.5152C21.1193 22.5215 21.1193 22.5278 21.1193 22.534C21.1193 22.5403 21.1193 22.5466 21.1193 22.5529C21.1193 22.5591 21.1193 22.5654 21.1193 22.5716C21.1193 22.5779 21.1193 22.5841 21.1193 22.5904C21.1193 22.5966 21.1193 22.6028 21.1193 22.609C21.1193 22.6153 21.1193 22.6215 21.1193 22.6277C21.1193 22.6339 21.1193 22.6401 21.1193 22.6463C21.1193 22.6525 21.1193 22.6587 21.1193 22.6648C21.1193 22.671 21.1193 22.6772 21.1193 22.6833C21.1193 22.6895 21.1193 22.6957 21.1193 22.7018C21.1193 22.708 21.1193 22.7141 21.1193 22.7202C21.1193 22.7264 21.1193 22.7325 21.1193 22.7386C21.1193 22.7447 21.1193 22.7508 21.1193 22.7569C21.1193 22.763 21.1193 22.7691 21.1193 22.7752C21.1193 22.7813 21.1193 22.7873 21.1193 22.7934C21.1193 22.7995 21.1193 22.8055 21.1193 22.8116C21.1193 22.8176 21.1193 22.8237 21.1193 22.8297C21.1193 22.8358 21.1193 22.8418 21.1193 22.8478C21.1193 22.8538 21.1193 22.8598 21.1193 22.8658C21.1193 22.8718 21.1193 22.8778 21.1193 22.8838C21.1193 22.8898 21.1193 22.8958 21.1193 22.9018C21.1193 22.9077 21.1193 22.9137 21.1193 22.9196C21.1193 22.9256 21.1193 22.9315 21.1193 22.9375C21.1193 22.9434 21.1193 22.9493 21.1193 22.9553C21.1193 22.9612 21.1193 22.9671 21.1193 22.973C21.1193 22.9789 21.1193 22.9848 21.1193 22.9907C21.1193 22.9966 21.1193 23.0024 21.1193 23.0083C21.1193 23.0142 21.1193 23.02 21.1193 23.0259C21.1193 23.0317 21.1193 23.0376 21.1193 23.0434C21.1193 23.0493 21.1193 23.0551 21.1193 23.0609C21.1193 23.0667 21.1193 23.0725 21.1193 23.0783C21.1193 23.0841 21.1193 23.0899 21.1193 23.0957C21.1193 23.1015 21.1193 23.1073 21.1193 23.113C21.1193 23.1188 21.1193 23.1245 21.1193 23.1303C21.1193 23.136 21.1193 23.1418 21.1193 23.1475C21.1193 23.1532 21.1193 23.1589 21.1193 23.1647C21.1193 23.1704 21.1193 23.1761 21.1193 23.1818C21.1193 23.1875 21.1193 23.1931 21.1193 23.1988C21.1193 23.2045 21.1193 23.2101 21.1193 23.2158C21.1193 23.2215 21.1193 23.2271 21.1193 23.2327C21.1193 23.2384 21.1193 23.244 21.1193 23.2496C21.1193 23.2552 21.1193 23.2609 21.1193 23.2665C21.1193 23.2721 21.1193 23.2776 21.1193 23.2832C21.1193 23.2888 21.1193 23.2944 21.1193 23.2999C21.1193 23.3055 21.1193 23.3111 21.1193 23.3166C21.1193 23.3221 21.1193 23.3277 21.1193 23.3332C21.1193 23.3387 21.1193 23.3442 21.1193 23.3498C21.1193 23.3553 21.1193 23.3608 21.1193 23.3662C21.1193 23.3717 21.1193 23.3772 21.1193 23.3827C21.1193 23.3881 21.1193 23.3936 21.1193 23.399C21.1193 23.4045 21.1193 23.4099 21.1193 23.4154C21.1193 23.4208 21.1193 23.4262 21.1193 23.4316C21.1193 23.437 21.1193 23.4424 21.1193 23.4478C21.1193 23.4532 21.1193 23.4586 21.1193 23.4639C21.1193 23.4693 21.1193 23.4747 21.1193 23.48C21.1193 23.4854 21.1193 23.4907 21.1193 23.496C21.1193 23.5014 21.1193 23.5067 21.1193 23.512C21.1193 23.5173 21.1193 23.5226 21.1193 23.5279C21.1193 23.5332 21.1193 23.5384 21.1193 23.5437C21.1193 23.549 21.1193 23.5542 21.1193 23.5595C21.1193 23.5647 21.1193 23.57 21.1193 23.5752C21.1193 23.5804 21.1193 23.5856 21.1193 23.5908C21.1193 23.5961 21.1193 23.6013 21.1193 23.6064C21.1193 23.6116 21.1193 23.6168 21.1193 23.622C21.1193 23.6271 21.1193 23.6323 21.1193 23.6374C21.1193 23.6426 21.1193 23.6477 21.1193 23.6528C21.1193 23.6579 21.1193 23.6631 21.1193 23.6682C21.1193 23.6733 21.1193 23.6783 21.1193 23.6834C21.1193 23.6885 21.1193 23.6936 21.1193 23.6986C21.1193 23.7037 21.1193 23.7087 21.1193 23.7138C21.1193 23.7188 21.1193 23.7238 21.1193 23.7289C21.1193 23.7339 21.1193 23.7389 21.1193 23.7439C21.1193 23.7489 21.1193 23.7538 21.1193 23.7588C21.1193 23.7638 21.1193 23.7687 21.1193 23.7737C21.1193 23.7786 21.1193 23.7836 21.1193 23.7885C21.1193 23.7934 21.1193 23.7984 21.1193 23.8033C21.1193 23.8082 21.1193 23.8131 21.1193 23.8179C21.1193 23.8228 21.1193 23.8277 21.1193 23.8326C21.1193 23.8374 21.1193 23.8423 21.1193 23.8471C21.1193 23.8519 21.1193 23.8568 21.1193 23.8616C21.1193 23.8664 21.1193 23.8712 21.1193 23.876C21.1193 23.8808 21.1193 23.8856 21.1193 23.8903C21.1193 23.8951 21.1193 23.8999 21.1193 23.9046C21.1193 23.9094 21.1193 23.9141 21.1193 23.9188C21.1193 23.9236 21.1193 23.9283 21.1193 23.933C21.1193 23.9377 21.1193 23.9424 21.1193 23.947C21.1193 23.9517 21.1193 23.9564 21.1193 23.961C21.1193 23.9657 21.1193 23.9703 21.1193 23.975C21.1193 23.9796 21.1193 23.9842 21.1193 23.9888C21.1193 23.9934 21.1193 23.998 21.1193 24.0026C21.1193 24.0072 21.1193 24.0118 21.1193 24.0163C21.1193 24.0209 21.1193 24.0254 21.1193 24.03C21.1193 24.0345 21.1193 24.039 21.1193 24.0436C21.1193 24.0481 21.1193 24.0526 21.1193 24.0571C21.1193 24.0616 21.1193 24.066 21.1193 24.0705C21.1193 24.075 21.1193 24.0794 21.1193 24.0839C21.1193 24.0883 21.1193 24.0927 21.1193 24.0971C21.1193 24.1016 21.1193 24.106 21.1193 24.1104C21.1193 24.1148 21.1193 24.1191 21.1193 24.1235C21.1193 24.1279 21.1193 24.1322 21.1193 24.1366C21.1193 24.1409 21.1193 24.1452 21.1193 24.1496C21.1193 24.1539 21.1193 24.1582 21.1193 24.1625C21.1193 24.1668 21.1193 24.1711 21.1193 24.1753C21.1193 24.1796 21.1193 24.1838 21.1193 24.1881C21.1193 24.1923 21.1193 24.1966 21.1193 24.2008C21.1193 24.205 21.1193 24.2092 21.1193 24.2134C21.1193 24.2176 21.1193 24.2218 21.1193 24.2259C21.1193 24.2301 21.1193 24.2343 21.1193 24.2384C21.1193 24.2426 21.1193 24.2467 21.1193 24.2508C21.1193 24.2549 21.1193 24.259 21.1193 24.2631C21.1193 24.2672 21.1193 24.2713 21.1193 24.2754C21.1193 24.2794 21.1193 24.2835 21.1193 24.2875C21.1193 24.2915 21.1193 24.2956 21.1193 24.2996C21.1193 24.3036 21.1193 24.3076 21.1193 24.3116C21.1193 24.3156 21.1193 24.3196 21.1193 24.3235C21.1193 24.3275 21.1193 24.3314 21.1193 24.3354C21.1193 24.3393 21.1193 24.3432 21.1193 24.3471C21.1193 24.351 21.1193 24.3549 21.1193 24.3588C21.1193 24.3627 21.1193 24.3666 21.1193 24.3704C21.1193 24.3743 21.1193 24.3781 21.1193 24.382C21.1193 24.3858 21.1193 24.3896 21.1193 24.3934C21.1193 24.3972 21.1193 24.401 21.1193 24.4048C21.1193 24.4086 21.1193 24.4123 21.1193 24.4161C21.1193 24.4198 21.1193 24.4235 21.1193 24.4273C21.1193 24.431 21.1193 24.4347 21.1193 24.4384C21.1193 24.4421 21.1193 24.4458 21.1193 24.4494C21.1193 24.4531 21.1193 24.4568 21.1193 24.4604C21.1193 24.464 21.1193 24.4677 21.1193 24.4713C21.1193 24.4749 21.1193 24.4785 21.1193 24.4821C21.1193 24.4857 21.1193 24.4892 21.1193 24.4928C21.1193 24.4963 21.1193 24.4999 21.1193 24.5034C21.1193 24.5069 21.1193 24.5105 21.1193 24.514C21.1193 24.5175 21.1193 24.521 21.1193 24.5244C21.1193 24.5279 21.1193 24.5314 21.1193 24.5348C21.1193 24.5383 21.1193 24.5417 21.1193 24.5451C21.1193 24.5485 21.1193 24.5519 21.1193 24.5553C21.1193 24.5587 21.1193 24.5621 21.1193 24.5654C21.1193 24.5688 21.1193 24.5721 21.1193 24.5755C21.1193 24.5788 21.1193 24.5821 21.1193 24.5854C21.1193 24.5887 21.1193 24.592 21.1193 24.5953C21.1193 24.5986 21.1193 24.6018 21.1193 24.6051C21.1193 24.6083 21.1193 24.6116 21.1193 24.6148C21.1193 24.618 21.1193 24.6212 21.1193 24.6244C21.1193 24.6276 21.1193 24.6307 21.1193 24.6339C21.1193 24.6371 21.1193 24.6402 21.1193 24.6433C21.1193 24.6465 21.1193 24.6496 21.1193 24.6527C21.1193 24.6558 21.1193 24.6589 21.1193 24.6619C21.1193 24.665 21.1193 24.6681 21.1193 24.6711C21.1193 24.6741 21.1193 24.6772 21.1193 24.6802C21.1193 24.6832 21.1193 24.6862 21.1193 24.6892C21.1193 24.6921 21.1193 24.6951 21.1193 24.6981C21.1193 24.701 21.1193 24.704 21.1193 24.7069C21.1193 24.7098 21.1193 24.7127 21.1193 24.7156C21.1193 24.7185 21.1193 24.7214 21.1193 24.7242C21.1193 24.7271 21.1193 24.7299 21.1193 24.7328C21.1193 24.7356 21.1193 24.7384 21.1193 24.7412C21.1193 24.744 21.1193 24.7468 21.1193 24.7496C21.1193 24.7524 21.1193 24.7551 21.1193 24.7578C21.1193 24.7606 21.1193 24.7633 21.1193 24.766C21.1193 24.7687 21.1193 24.7714 21.1193 24.7741C21.1193 24.7768 21.1193 24.7794 21.1193 24.7821C21.1193 24.7847 21.1193 24.7874 21.1193 24.79C21.1193 24.7926 21.1193 24.7952 21.1193 24.7978C21.1193 24.8004 21.1193 24.803 21.1193 24.8055C21.1193 24.8081 21.1193 24.8106 21.1193 24.8131C21.1193 24.8156 21.1193 24.8182 21.1193 24.8206C21.1193 24.8231 21.1193 24.8256 21.1193 24.8281C21.1193 24.8305 21.1193 24.833 21.1193 24.8354C21.1193 24.8378 21.1193 24.8402 21.1193 24.8426C21.1193 24.845 21.1193 24.8474 21.1193 24.8498C21.1193 24.8522 21.1193 24.8545 21.1193 24.8568C21.1193 24.8592 21.1193 24.8615 21.1193 24.8638C21.1193 24.8661 21.1193 24.8684 21.1193 24.8706C21.1193 24.8729 21.1193 24.8752 21.1193 24.8774C21.1193 24.8796 21.1193 24.8819 21.1193 24.8841C21.1193 24.8863 21.1193 24.8885 21.1193 24.8906C21.1193 24.8928 21.1193 24.895 21.1193 24.8971C21.1193 24.8992 21.1193 24.9014 21.1193 24.9035C21.1193 24.9056 21.1193 24.9077 21.1193 24.9097C21.1193 24.9118 21.1193 24.9139 21.1193 24.9159C21.1193 24.918 21.1193 24.92 21.1193 24.922C21.1193 24.924 21.1193 24.926 21.1193 24.928C21.1193 24.9299 21.1193 24.9319 21.1193 24.9338C21.1193 24.9358 21.1193 24.9377 21.1193 24.9396C21.1193 24.9415 21.1193 24.9434 21.1193 24.9453C21.1193 24.9472 21.1193 24.949 21.1193 24.9509C21.1193 24.9527 21.1193 24.9545 21.1193 24.9564C21.1193 24.9582 21.1193 24.96 21.1193 24.9617C21.1193 24.9635 21.1193 24.9653 21.1193 24.967C21.1193 24.9688 21.1193 24.9705 21.1193 24.9722C21.1193 24.9739 21.1193 24.9756 21.1193 24.9773C21.1193 24.9789 21.1193 24.9806 21.1193 24.9822C21.1193 24.9839 21.1193 24.9855 21.1193 24.9871C21.1193 24.9887 21.1193 24.9903 21.1193 24.9919C21.1193 24.9934 21.1193 24.995 21.1193 24.9965C21.1193 24.9981 21.1193 24.9996 21.1193 25.0011C21.1193 25.0026 21.1193 25.0041 21.1193 25.0055C21.1193 25.007 21.1193 25.0085 21.1193 25.0099C21.1193 25.0113 21.1193 25.0127 21.1193 25.0141C21.1193 25.0155 21.1193 25.0169 21.1193 25.0183C21.1193 25.0196 21.1193 25.021 21.1193 25.0223C21.1193 25.0236 21.1193 25.0249 21.1193 25.0262C21.1193 25.0275 21.1193 25.0288 21.1193 25.0301C21.1193 25.0313 21.1193 25.0326 21.1193 25.0338C21.1193 25.035 21.1193 25.0362 21.1193 25.0374C21.1193 25.0386 21.1193 25.0398 21.1193 25.0409C21.1193 25.0421 21.1193 25.0432 21.1193 25.0443C21.1193 25.0454 21.1193 25.0465 21.1193 25.0476C21.1193 25.0487 21.1193 25.0498 21.1193 25.0508C21.1193 25.0518 21.1193 25.0529 21.1193 25.0539C21.1193 25.0549 21.1193 25.0559 21.1193 25.0569C21.1193 25.0578 21.1193 25.0588 21.1193 25.0597C21.1193 25.0607 21.1193 25.0616 21.1193 25.0625C21.1193 25.0634 21.1193 25.0643 21.1193 25.0651C21.1193 25.066 21.1193 25.0668 21.1193 25.0677C21.1193 25.0685 21.1193 25.0693 21.1193 25.0701C21.1193 25.0709 21.1193 25.0716 21.1193 25.0724C21.1193 25.0732 21.1193 25.0739 21.1193 25.0746C21.1193 25.0753 21.1193 25.076 21.1193 25.0767C21.1193 25.0774 21.1193 25.078 21.1193 25.0787C21.1193 25.0793 21.1193 25.08 21.1193 25.0806C21.1193 25.0812 21.1193 25.0818 21.1193 25.0823C21.1193 25.0829 21.1193 25.0835 21.1193 25.084C21.1193 25.0845 21.1193 25.085 21.1193 25.0855C21.1193 25.086 21.1193 25.0865 21.1193 25.087C21.1193 25.0874 21.1193 25.0879 21.1193 25.0883C21.1193 25.0887 21.1193 25.0891 21.1193 25.0895C21.1193 25.0899 21.1193 25.0902 21.1193 25.0906C21.1193 25.0909 21.1193 25.0912 21.1193 25.0915C21.1193 25.0919 21.1193 25.0921 21.1193 25.0924C21.1193 25.0927 21.1193 25.0929 21.1193 25.0932C21.1193 25.0934 21.1193 25.0936 21.1193 25.0938C21.1193 25.094 21.1193 25.0942 21.1193 25.0943C21.1193 25.0945 21.1193 25.0946 21.1193 25.0947C21.1193 25.0948 21.1193 25.0949 21.1193 25.095C21.1193 25.0951 21.1193 25.0951 21.1193 25.0952C21.1193 25.0952 21.1193 25.0952 22.6193 25.0952C24.1193 25.0952 24.1193 25.0952 24.1193 25.0952C24.1193 25.0951 24.1193 25.0951 24.1193 25.095C24.1193 25.0949 24.1193 25.0948 24.1193 25.0947C24.1193 25.0946 24.1193 25.0945 24.1193 25.0943C24.1193 25.0942 24.1193 25.094 24.1193 25.0938C24.1193 25.0936 24.1193 25.0934 24.1193 25.0932C24.1193 25.0929 24.1193 25.0927 24.1193 25.0924C24.1193 25.0921 24.1193 25.0919 24.1193 25.0915C24.1193 25.0912 24.1193 25.0909 24.1193 25.0906C24.1193 25.0902 24.1193 25.0899 24.1193 25.0895C24.1193 25.0891 24.1193 25.0887 24.1193 25.0883C24.1193 25.0879 24.1193 25.0874 24.1193 25.087C24.1193 25.0865 24.1193 25.086 24.1193 25.0855C24.1193 25.085 24.1193 25.0845 24.1193 25.084C24.1193 25.0835 24.1193 25.0829 24.1193 25.0823C24.1193 25.0818 24.1193 25.0812 24.1193 25.0806C24.1193 25.08 24.1193 25.0793 24.1193 25.0787C24.1193 25.0781 24.1193 25.0774 24.1193 25.0767C24.1193 25.076 24.1193 25.0753 24.1193 25.0746C24.1193 25.0739 24.1193 25.0732 24.1193 25.0724C24.1193 25.0716 24.1193 25.0709 24.1193 25.0701C24.1193 25.0693 24.1193 25.0685 24.1193 25.0677C24.1193 25.0668 24.1193 25.066 24.1193 25.0651C24.1193 25.0643 24.1193 25.0634 24.1193 25.0625C24.1193 25.0616 24.1193 25.0607 24.1193 25.0597C24.1193 25.0588 24.1193 25.0578 24.1193 25.0569C24.1193 25.0559 24.1193 25.0549 24.1193 25.0539C24.1193 25.0529 24.1193 25.0518 24.1193 25.0508C24.1193 25.0498 24.1193 25.0487 24.1193 25.0476C24.1193 25.0465 24.1193 25.0454 24.1193 25.0443C24.1193 25.0432 24.1193 25.0421 24.1193 25.0409C24.1193 25.0398 24.1193 25.0386 24.1193 25.0374C24.1193 25.0362 24.1193 25.035 24.1193 25.0338C24.1193 25.0326 24.1193 25.0313 24.1193 25.0301C24.1193 25.0288 24.1193 25.0275 24.1193 25.0262C24.1193 25.0249 24.1193 25.0236 24.1193 25.0223C24.1193 25.021 24.1193 25.0196 24.1193 25.0183C24.1193 25.0169 24.1193 25.0155 24.1193 25.0141C24.1193 25.0127 24.1193 25.0113 24.1193 25.0099C24.1193 25.0085 24.1193 25.007 24.1193 25.0055C24.1193 25.0041 24.1193 25.0026 24.1193 25.0011C24.1193 24.9996 24.1193 24.9981 24.1193 24.9965C24.1193 24.995 24.1193 24.9934 24.1193 24.9919C24.1193 24.9903 24.1193 24.9887 24.1193 24.9871C24.1193 24.9855 24.1193 24.9839 24.1193 24.9822C24.1193 24.9806 24.1193 24.9789 24.1193 24.9773C24.1193 24.9756 24.1193 24.9739 24.1193 24.9722C24.1193 24.9705 24.1193 24.9688 24.1193 24.967C24.1193 24.9653 24.1193 24.9635 24.1193 24.9617C24.1193 24.96 24.1193 24.9582 24.1193 24.9564C24.1193 24.9545 24.1193 24.9527 24.1193 24.9509C24.1193 24.949 24.1193 24.9472 24.1193 24.9453C24.1193 24.9434 24.1193 24.9415 24.1193 24.9396C24.1193 24.9377 24.1193 24.9358 24.1193 24.9338C24.1193 24.9319 24.1193 24.9299 24.1193 24.928C24.1193 24.926 24.1193 24.924 24.1193 24.922C24.1193 24.92 24.1193 24.918 24.1193 24.9159C24.1193 24.9139 24.1193 24.9118 24.1193 24.9097C24.1193 24.9077 24.1193 24.9056 24.1193 24.9035C24.1193 24.9014 24.1193 24.8992 24.1193 24.8971C24.1193 24.895 24.1193 24.8928 24.1193 24.8906C24.1193 24.8885 24.1193 24.8863 24.1193 24.8841C24.1193 24.8819 24.1193 24.8796 24.1193 24.8774C24.1193 24.8752 24.1193 24.8729 24.1193 24.8706C24.1193 24.8684 24.1193 24.8661 24.1193 24.8638C24.1193 24.8615 24.1193 24.8592 24.1193 24.8568C24.1193 24.8545 24.1193 24.8522 24.1193 24.8498C24.1193 24.8474 24.1193 24.845 24.1193 24.8426C24.1193 24.8402 24.1193 24.8378 24.1193 24.8354C24.1193 24.833 24.1193 24.8305 24.1193 24.8281C24.1193 24.8256 24.1193 24.8231 24.1193 24.8206C24.1193 24.8182 24.1193 24.8156 24.1193 24.8131C24.1193 24.8106 24.1193 24.8081 24.1193 24.8055C24.1193 24.803 24.1193 24.8004 24.1193 24.7978C24.1193 24.7952 24.1193 24.7926 24.1193 24.79C24.1193 24.7874 24.1193 24.7847 24.1193 24.7821C24.1193 24.7794 24.1193 24.7768 24.1193 24.7741C24.1193 24.7714 24.1193 24.7687 24.1193 24.766C24.1193 24.7633 24.1193 24.7606 24.1193 24.7578C24.1193 24.7551 24.1193 24.7524 24.1193 24.7496C24.1193 24.7468 24.1193 24.744 24.1193 24.7412C24.1193 24.7384 24.1193 24.7356 24.1193 24.7328C24.1193 24.7299 24.1193 24.7271 24.1193 24.7242C24.1193 24.7214 24.1193 24.7185 24.1193 24.7156C24.1193 24.7127 24.1193 24.7098 24.1193 24.7069C24.1193 24.704 24.1193 24.701 24.1193 24.6981C24.1193 24.6951 24.1193 24.6921 24.1193 24.6892C24.1193 24.6862 24.1193 24.6832 24.1193 24.6802C24.1193 24.6772 24.1193 24.6741 24.1193 24.6711C24.1193 24.6681 24.1193 24.665 24.1193 24.6619C24.1193 24.6589 24.1193 24.6558 24.1193 24.6527C24.1193 24.6496 24.1193 24.6465 24.1193 24.6433C24.1193 24.6402 24.1193 24.6371 24.1193 24.6339C24.1193 24.6307 24.1193 24.6276 24.1193 24.6244C24.1193 24.6212 24.1193 24.618 24.1193 24.6148C24.1193 24.6116 24.1193 24.6083 24.1193 24.6051C24.1193 24.6018 24.1193 24.5986 24.1193 24.5953C24.1193 24.592 24.1193 24.5887 24.1193 24.5854C24.1193 24.5821 24.1193 24.5788 24.1193 24.5755C24.1193 24.5721 24.1193 24.5688 24.1193 24.5654C24.1193 24.5621 24.1193 24.5587 24.1193 24.5553C24.1193 24.5519 24.1193 24.5485 24.1193 24.5451C24.1193 24.5417 24.1193 24.5383 24.1193 24.5348C24.1193 24.5314 24.1193 24.5279 24.1193 24.5244C24.1193 24.521 24.1193 24.5175 24.1193 24.514C24.1193 24.5105 24.1193 24.5069 24.1193 24.5034C24.1193 24.4999 24.1193 24.4963 24.1193 24.4928C24.1193 24.4892 24.1193 24.4857 24.1193 24.4821C24.1193 24.4785 24.1193 24.4749 24.1193 24.4713C24.1193 24.4677 24.1193 24.464 24.1193 24.4604C24.1193 24.4568 24.1193 24.4531 24.1193 24.4494C24.1193 24.4458 24.1193 24.4421 24.1193 24.4384C24.1193 24.4347 24.1193 24.431 24.1193 24.4273C24.1193 24.4235 24.1193 24.4198 24.1193 24.4161C24.1193 24.4123 24.1193 24.4086 24.1193 24.4048C24.1193 24.401 24.1193 24.3972 24.1193 24.3934C24.1193 24.3896 24.1193 24.3858 24.1193 24.382C24.1193 24.3781 24.1193 24.3743 24.1193 24.3704C24.1193 24.3666 24.1193 24.3627 24.1193 24.3588C24.1193 24.3549 24.1193 24.351 24.1193 24.3471C24.1193 24.3432 24.1193 24.3393 24.1193 24.3354C24.1193 24.3314 24.1193 24.3275 24.1193 24.3235C24.1193 24.3196 24.1193 24.3156 24.1193 24.3116C24.1193 24.3076 24.1193 24.3036 24.1193 24.2996C24.1193 24.2956 24.1193 24.2915 24.1193 24.2875C24.1193 24.2835 24.1193 24.2794 24.1193 24.2754C24.1193 24.2713 24.1193 24.2672 24.1193 24.2631C24.1193 24.259 24.1193 24.2549 24.1193 24.2508C24.1193 24.2467 24.1193 24.2426 24.1193 24.2384C24.1193 24.2343 24.1193 24.2301 24.1193 24.2259C24.1193 24.2218 24.1193 24.2176 24.1193 24.2134C24.1193 24.2092 24.1193 24.205 24.1193 24.2008C24.1193 24.1966 24.1193 24.1923 24.1193 24.1881C24.1193 24.1838 24.1193 24.1796 24.1193 24.1753C24.1193 24.1711 24.1193 24.1668 24.1193 24.1625C24.1193 24.1582 24.1193 24.1539 24.1193 24.1496C24.1193 24.1452 24.1193 24.1409 24.1193 24.1366C24.1193 24.1322 24.1193 24.1279 24.1193 24.1235C24.1193 24.1191 24.1193 24.1148 24.1193 24.1104C24.1193 24.106 24.1193 24.1016 24.1193 24.0971C24.1193 24.0927 24.1193 24.0883 24.1193 24.0839C24.1193 24.0794 24.1193 24.075 24.1193 24.0705C24.1193 24.066 24.1193 24.0616 24.1193 24.0571C24.1193 24.0526 24.1193 24.0481 24.1193 24.0436C24.1193 24.039 24.1193 24.0345 24.1193 24.03C24.1193 24.0254 24.1193 24.0209 24.1193 24.0163C24.1193 24.0118 24.1193 24.0072 24.1193 24.0026C24.1193 23.998 24.1193 23.9934 24.1193 23.9888C24.1193 23.9842 24.1193 23.9796 24.1193 23.975C24.1193 23.9703 24.1193 23.9657 24.1193 23.961C24.1193 23.9564 24.1193 23.9517 24.1193 23.947C24.1193 23.9424 24.1193 23.9377 24.1193 23.933C24.1193 23.9283 24.1193 23.9236 24.1193 23.9188C24.1193 23.9141 24.1193 23.9094 24.1193 23.9046C24.1193 23.8999 24.1193 23.8951 24.1193 23.8903C24.1193 23.8856 24.1193 23.8808 24.1193 23.876C24.1193 23.8712 24.1193 23.8664 24.1193 23.8616C24.1193 23.8568 24.1193 23.8519 24.1193 23.8471C24.1193 23.8423 24.1193 23.8374 24.1193 23.8326C24.1193 23.8277 24.1193 23.8228 24.1193 23.8179C24.1193 23.8131 24.1193 23.8082 24.1193 23.8033C24.1193 23.7984 24.1193 23.7934 24.1193 23.7885C24.1193 23.7836 24.1193 23.7786 24.1193 23.7737C24.1193 23.7687 24.1193 23.7638 24.1193 23.7588C24.1193 23.7538 24.1193 23.7489 24.1193 23.7439C24.1193 23.7389 24.1193 23.7339 24.1193 23.7289C24.1193 23.7238 24.1193 23.7188 24.1193 23.7138C24.1193 23.7087 24.1193 23.7037 24.1193 23.6986C24.1193 23.6936 24.1193 23.6885 24.1193 23.6834C24.1193 23.6783 24.1193 23.6733 24.1193 23.6682C24.1193 23.6631 24.1193 23.6579 24.1193 23.6528C24.1193 23.6477 24.1193 23.6426 24.1193 23.6374C24.1193 23.6323 24.1193 23.6271 24.1193 23.622C24.1193 23.6168 24.1193 23.6116 24.1193 23.6064C24.1193 23.6013 24.1193 23.5961 24.1193 23.5908C24.1193 23.5856 24.1193 23.5804 24.1193 23.5752C24.1193 23.57 24.1193 23.5647 24.1193 23.5595C24.1193 23.5542 24.1193 23.549 24.1193 23.5437C24.1193 23.5384 24.1193 23.5332 24.1193 23.5279C24.1193 23.5226 24.1193 23.5173 24.1193 23.512C24.1193 23.5067 24.1193 23.5014 24.1193 23.496C24.1193 23.4907 24.1193 23.4854 24.1193 23.48C24.1193 23.4747 24.1193 23.4693 24.1193 23.4639C24.1193 23.4586 24.1193 23.4532 24.1193 23.4478C24.1193 23.4424 24.1193 23.437 24.1193 23.4316C24.1193 23.4262 24.1193 23.4208 24.1193 23.4154C24.1193 23.4099 24.1193 23.4045 24.1193 23.399C24.1193 23.3936 24.1193 23.3881 24.1193 23.3827C24.1193 23.3772 24.1193 23.3717 24.1193 23.3662C24.1193 23.3608 24.1193 23.3553 24.1193 23.3498C24.1193 23.3442 24.1193 23.3387 24.1193 23.3332C24.1193 23.3277 24.1193 23.3221 24.1193 23.3166C24.1193 23.3111 24.1193 23.3055 24.1193 23.2999C24.1193 23.2944 24.1193 23.2888 24.1193 23.2832C24.1193 23.2776 24.1193 23.2721 24.1193 23.2665C24.1193 23.2609 24.1193 23.2552 24.1193 23.2496C24.1193 23.244 24.1193 23.2384 24.1193 23.2327C24.1193 23.2271 24.1193 23.2215 24.1193 23.2158C24.1193 23.2101 24.1193 23.2045 24.1193 23.1988C24.1193 23.1931 24.1193 23.1875 24.1193 23.1818C24.1193 23.1761 24.1193 23.1704 24.1193 23.1647C24.1193 23.1589 24.1193 23.1532 24.1193 23.1475C24.1193 23.1418 24.1193 23.136 24.1193 23.1303C24.1193 23.1245 24.1193 23.1188 24.1193 23.113C24.1193 23.1073 24.1193 23.1015 24.1193 23.0957C24.1193 23.0899 24.1193 23.0841 24.1193 23.0783C24.1193 23.0725 24.1193 23.0667 24.1193 23.0609C24.1193 23.0551 24.1193 23.0493 24.1193 23.0434C24.1193 23.0376 24.1193 23.0317 24.1193 23.0259C24.1193 23.02 24.1193 23.0142 24.1193 23.0083C24.1193 23.0024 24.1193 22.9966 24.1193 22.9907C24.1193 22.9848 24.1193 22.9789 24.1193 22.973C24.1193 22.9671 24.1193 22.9612 24.1193 22.9553C24.1193 22.9493 24.1193 22.9434 24.1193 22.9375C24.1193 22.9315 24.1193 22.9256 24.1193 22.9196C24.1193 22.9137 24.1193 22.9077 24.1193 22.9018C24.1193 22.8958 24.1193 22.8898 24.1193 22.8838C24.1193 22.8778 24.1193 22.8718 24.1193 22.8658C24.1193 22.8598 24.1193 22.8538 24.1193 22.8478C24.1193 22.8418 24.1193 22.8358 24.1193 22.8297C24.1193 22.8237 24.1193 22.8176 24.1193 22.8116C24.1193 22.8055 24.1193 22.7995 24.1193 22.7934C24.1193 22.7873 24.1193 22.7813 24.1193 22.7752C24.1193 22.7691 24.1193 22.763 24.1193 22.7569C24.1193 22.7508 24.1193 22.7447 24.1193 22.7386C24.1193 22.7325 24.1193 22.7264 24.1193 22.7202C24.1193 22.7141 24.1193 22.708 24.1193 22.7018C24.1193 22.6957 24.1193 22.6895 24.1193 22.6833C24.1193 22.6772 24.1193 22.671 24.1193 22.6648C24.1193 22.6587 24.1193 22.6525 24.1193 22.6463C24.1193 22.6401 24.1193 22.6339 24.1193 22.6277C24.1193 22.6215 24.1193 22.6153 24.1193 22.609C24.1193 22.6028 24.1193 22.5966 24.1193 22.5904C24.1193 22.5841 24.1193 22.5779 24.1193 22.5716C24.1193 22.5654 24.1193 22.5591 24.1193 22.5529C24.1193 22.5466 24.1193 22.5403 24.1193 22.534C24.1193 22.5278 24.1193 22.5215 24.1193 22.5152C24.1193 22.5089 24.1193 22.5026 24.1193 22.4963C24.1193 22.49 24.1193 22.4836 24.1193 22.4773C24.1193 22.471 24.1193 22.4647 24.1193 22.4583C24.1193 22.452 24.1193 22.4457 24.1193 22.4393C24.1193 22.4329 24.1193 22.4266 24.1193 22.4202C24.1193 22.4139 24.1193 22.4075 24.1193 22.4011C24.1193 22.3947 24.1193 22.3883 24.1193 22.382C24.1193 22.3756 24.1193 22.3692 24.1193 22.3628C24.1193 22.3563 24.1193 22.3499 24.1193 22.3435C24.1193 22.3371 24.1193 22.3307 24.1193 22.3242C24.1193 22.3178 24.1193 22.3114 24.1193 22.3049C24.1193 22.2985 24.1193 22.292 24.1193 22.2856C24.1193 22.2791 24.1193 22.2726 24.1193 22.2662C24.1193 22.2597 24.1193 22.2532 24.1193 22.2467C24.1193 22.2402 24.1193 22.2337 24.1193 22.2272C24.1193 22.2207 24.1193 22.2142 24.1193 22.2077C24.1193 22.2012 24.1193 22.1947 24.1193 22.1882C24.1193 22.1817 24.1193 22.1751 24.1193 22.1686C24.1193 22.1621 24.1193 22.1555 24.1193 22.149C24.1193 22.1424 24.1193 22.1359 24.1193 22.1293C24.1193 22.1227 24.1193 22.1162 24.1193 22.1096C24.1193 22.103 24.1193 22.0964 24.1193 22.0899C24.1193 22.0833 24.1193 22.0767 24.1193 22.0701C24.1193 22.0635 24.1193 22.0569 24.1193 22.0503C24.1193 22.0437 24.1193 22.037 24.1193 22.0304C24.1193 22.0238 24.1193 22.0172 24.1193 22.0105C24.1193 22.0039 24.1193 21.9973 24.1193 21.9906C24.1193 21.984 24.1193 21.9773 24.1193 21.9707C24.1193 21.964 24.1193 21.9573 24.1193 21.9507C24.1193 21.944 24.1193 21.9373 24.1193 21.9307C24.1193 21.924 24.1193 21.9173 24.1193 21.9106C24.1193 21.9039 24.1193 21.8972 24.1193 21.8905C24.1193 21.8838 24.1193 21.8771 24.1193 21.8704C24.1193 21.8637 24.1193 21.857 24.1193 21.8502C24.1193 21.8435 24.1193 21.8368 24.1193 21.8301C24.1193 21.8233 24.1193 21.8166 24.1193 21.8098C24.1193 21.8031 24.1193 21.7963 24.1193 21.7896C24.1193 21.7828 24.1193 21.7761 24.1193 21.7693C24.1193 21.7625 24.1193 21.7558 24.1193 21.749C24.1193 21.7422 24.1193 21.7354 24.1193 21.7286C24.1193 21.7219 24.1193 21.7151 24.1193 21.7083C24.1193 21.7015 24.1193 21.6947 24.1193 21.6879C24.1193 21.681 24.1193 21.6742 24.1193 21.6674C24.1193 21.6606 24.1193 21.6538 24.1193 21.647C24.1193 21.6401 24.1193 21.6333 24.1193 21.6265C24.1193 21.6196 24.1193 21.6128 24.1193 21.6059C24.1193 21.5991 24.1193 21.5922 24.1193 21.5854C24.1193 21.5785 24.1193 21.5717 24.1193 21.5648C24.1193 21.5579 24.1193 21.5511 24.1193 21.5442C24.1193 21.5373 24.1193 21.5304 24.1193 21.5235C24.1193 21.5167 24.1193 21.5098 24.1193 21.5029C24.1193 21.496 24.1193 21.4891 24.1193 21.4822C24.1193 21.4753 24.1193 21.4684 24.1193 21.4615C24.1193 21.4545 24.1193 21.4476 24.1193 21.4407C24.1193 21.4338 24.1193 21.4269 24.1193 21.4199C24.1193 21.413 24.1193 21.4061 24.1193 21.3991C24.1193 21.3922 24.1193 21.3853 24.1193 21.3783C24.1193 21.3714 24.1193 21.3644 24.1193 21.3575C24.1193 21.3505 24.1193 21.3435 24.1193 21.3366C24.1193 21.3296 24.1193 21.3227 24.1193 21.3157C24.1193 21.3087 24.1193 21.3017 24.1193 21.2948C24.1193 21.2878 24.1193 21.2808 24.1193 21.2738C24.1193 21.2668 24.1193 21.2598 24.1193 21.2528C24.1193 21.2458 24.1193 21.2388 24.1193 21.2318C24.1193 21.2248 24.1193 21.2178 24.1193 21.2108C24.1193 21.2038 24.1193 21.1968 24.1193 21.1898C24.1193 21.1827 24.1193 21.1757 24.1193 21.1687C24.1193 21.1617 24.1193 21.1546 24.1193 21.1476C24.1193 21.1406 24.1193 21.1335 24.1193 21.1265C24.1193 21.1194 24.1193 21.1124 24.1193 21.1054C24.1193 21.0983 24.1193 21.0913 24.1193 21.0842C24.1193 21.0771 24.1193 21.0701 24.1193 21.063C24.1193 21.056 24.1193 21.0489 24.1193 21.0418C24.1193 21.0348 24.1193 21.0277 24.1193 21.0206C24.1193 21.0135 24.1193 21.0065 24.1193 20.9994C24.1193 20.9923 24.1193 20.9852 24.1193 20.9781C24.1193 20.971 24.1193 20.9639 24.1193 20.9568C24.1193 20.9497 24.1193 20.9426 24.1193 20.9355C24.1193 20.9284 24.1193 20.9213 24.1193 20.9142C24.1193 20.9071 24.1193 20.9 24.1193 20.8929C24.1193 20.8858 24.1193 20.8786 24.1193 20.8715C24.1193 20.8644 24.1193 20.8573 24.1193 20.8502C24.1193 20.843 24.1193 20.8359 24.1193 20.8288C24.1193 20.8216 24.1193 20.8145 24.1193 20.8074C24.1193 20.8002 24.1193 20.7931 24.1193 20.7859C24.1193 20.7788 24.1193 20.7716 24.1193 20.7645C24.1193 20.7573 24.1193 20.7502 24.1193 20.743C24.1193 20.7359 24.1193 20.7287 24.1193 20.7216C24.1193 20.7144 24.1193 20.7072 24.1193 20.7001C24.1193 20.6929 24.1193 20.6857 24.1193 20.6786C24.1193 20.6714 24.1193 20.6642 24.1193 20.657C24.1193 20.6499 24.1193 20.6427 24.1193 20.6355C24.1193 20.6283 24.1193 20.6211 24.1193 20.614C24.1193 20.6068 24.1193 20.5996 24.1193 20.5924C24.1193 20.5852 24.1193 20.578 24.1193 20.5708C24.1193 20.5636 24.1193 20.5564 24.1193 20.5492C24.1193 20.542 24.1193 20.5348 24.1193 20.5276C24.1193 20.5204 24.1193 20.5132 24.1193 20.506C24.1193 20.4988 24.1193 20.4916 24.1193 20.4844C24.1193 20.4772 24.1193 20.4699 24.1193 20.4627C24.1193 20.4555 24.1193 20.4483 24.1193 20.4411C24.1193 20.4338 24.1193 20.4266 24.1193 20.4194C24.1193 20.4122 24.1193 20.4049 24.1193 20.3977C24.1193 20.3905 24.1193 20.3833 24.1193 20.376C24.1193 20.3688 24.1193 20.3616 24.1193 20.3543C24.1193 20.3471 24.1193 20.3398 24.1193 20.3326C24.1193 20.3254 24.1193 20.3181 24.1193 20.3109C24.1193 20.3036 24.1193 20.2964 24.1193 20.2891C24.1193 20.2819 24.1193 20.2746 24.1193 20.2674C24.1193 20.2601 24.1193 20.2529 24.1193 20.2456C24.1193 20.2384 24.1193 20.2311 24.1193 20.2239C24.1193 20.2166 24.1193 20.2094 24.1193 20.2021C24.1193 20.1949 24.1193 20.1876 24.1193 20.1803C24.1193 20.1731 24.1193 20.1658 24.1193 20.1585C24.1193 20.1513 24.1193 20.144 24.1193 20.1367C24.1193 20.1295 24.1193 20.1222 24.1193 20.1149C24.1193 20.1077 24.1193 20.1004 24.1193 20.0931C24.1193 20.0859 24.1193 20.0786 24.1193 20.0713C24.1193 20.064 24.1193 20.0568 24.1193 20.0495C24.1193 20.0422 24.1193 20.0349 24.1193 20.0277C24.1193 20.0204 24.1193 20.0131 24.1193 20.0058C24.1193 19.9985 24.1193 19.9913 24.1193 19.984C24.1193 19.9767 24.1193 19.9694 24.1193 19.9621C24.1193 19.9548 24.1193 19.9476 24.1193 19.9403C24.1193 19.933 24.1193 19.9257 24.1193 19.9184C24.1193 19.9111 24.1193 19.9038 24.1193 19.8966C24.1193 19.8893 24.1193 19.882 24.1193 19.8747C24.1193 19.8674 24.1193 19.8601 24.1193 19.8528C24.1193 19.8455 24.1193 19.8382 24.1193 19.8309C24.1193 19.8236 24.1193 19.8164 24.1193 19.8091C24.1193 19.8018 24.1193 19.7945 24.1193 19.7872C24.1193 19.7799 24.1193 19.7726 24.1193 19.7653C24.1193 19.758 24.1193 19.7507 24.1193 19.7434C24.1193 19.7361 24.1193 19.7288 24.1193 19.7215C24.1193 19.7142 24.1193 19.7069 24.1193 19.6996C24.1193 19.6923 24.1193 19.685 24.1193 19.6777C24.1193 19.6704 24.1193 19.6631 24.1193 19.6558C24.1193 19.6485 24.1193 19.6413 24.1193 19.634C24.1193 19.6267 24.1193 19.6194 24.1193 19.6121C24.1193 19.6048 24.1193 19.5975 24.1193 19.5902C24.1193 19.5829 24.1193 19.5756 24.1193 19.5683C24.1193 19.561 24.1193 19.5537 24.1193 19.5464C24.1193 19.5391 24.1193 19.5318 24.1193 19.5245C24.1193 19.5172 24.1193 19.5099 24.1193 19.5026C24.1193 19.4953 24.1193 19.488 24.1193 19.4807C24.1193 19.4734 24.1193 19.4661 24.1193 19.4588C24.1193 19.4515 24.1193 19.4442 24.1193 19.4369C24.1193 19.4296 24.1193 19.4223 24.1193 19.415C24.1193 19.4077 24.1193 19.4005 24.1193 19.3932C24.1193 19.3859 24.1193 19.3786 24.1193 19.3713C24.1193 19.364 24.1193 19.3567 24.1193 19.3494C24.1193 19.3421 24.1193 19.3348 24.1193 19.3275C24.1193 19.3202 24.1193 19.313 24.1193 19.3057C24.1193 19.2984 24.1193 19.2911 24.1193 19.2838C24.1193 19.2765 24.1193 19.2692 24.1193 19.2619C24.1193 19.2547 24.1193 19.2474 24.1193 19.2401C24.1193 19.2328 24.1193 19.2255 24.1193 19.2182C24.1193 19.2109 24.1193 19.2037 24.1193 19.1964C24.1193 19.1891 24.1193 19.1818 24.1193 19.1745C24.1193 19.1673 24.1193 19.16 24.1193 19.1527C24.1193 19.1454 24.1193 19.1382 24.1193 19.1309C24.1193 19.1236 24.1193 19.1163 24.1193 19.1091C24.1193 19.1018 24.1193 19.0945 24.1193 19.0873C24.1193 19.08 24.1193 19.0727 24.1193 19.0654C24.1193 19.0582 24.1193 19.0509 24.1193 19.0436C24.1193 19.0364 24.1193 19.0291 24.1193 19.0219C24.1193 19.0146 24.1193 19.0073 24.1193 19.0001C24.1193 18.9928 24.1193 18.9856 24.1193 18.9783C24.1193 18.971 24.1193 18.9638 24.1193 18.9565C24.1193 18.9493 24.1193 18.942 24.1193 18.9348C24.1193 18.9275 24.1193 18.9203 24.1193 18.913C24.1193 18.9058 24.1193 18.8985 24.1193 18.8913C24.1193 18.884 24.1193 18.8768 24.1193 18.8696C24.1193 18.8623 24.1193 18.8551 24.1193 18.8478C24.1193 18.8406 24.1193 18.8334 24.1193 18.8261C24.1193 18.8189 24.1193 18.8117 24.1193 18.8044C24.1193 18.7972 24.1193 18.79 24.1193 18.7828C24.1193 18.7755 24.1193 18.7683 24.1193 18.7611C24.1193 18.7539 24.1193 18.7466 24.1193 18.7394C24.1193 18.7322 24.1193 18.725 24.1193 18.7178C24.1193 18.7106 24.1193 18.7033 24.1193 18.6961C24.1193 18.6889 24.1193 18.6817 24.1193 18.6745C24.1193 18.6673 24.1193 18.6601 24.1193 18.6529C24.1193 18.6457 24.1193 18.6385 24.1193 18.6313C24.1193 18.6241 24.1193 18.6169 24.1193 18.6097C24.1193 18.6025 24.1193 18.5953 24.1193 18.5881C24.1193 18.581 24.1193 18.5738 24.1193 18.5666C24.1193 18.5594 24.1193 18.5522 24.1193 18.545C24.1193 18.5379 24.1193 18.5307 24.1193 18.5235C24.1193 18.5163 24.1193 18.5092 24.1193 18.502C24.1193 18.4948 24.1193 18.4877 24.1193 18.4805C24.1193 18.4734 24.1193 18.4662 24.1193 18.459C24.1193 18.4519 24.1193 18.4447 24.1193 18.4376C24.1193 18.4304 24.1193 18.4233 24.1193 18.4161C24.1193 18.409 24.1193 18.4018 24.1193 18.3947C24.1193 18.3876 24.1193 18.3804 24.1193 18.3733C24.1193 18.3661 24.1193 18.359 24.1193 18.3519C24.1193 18.3448 24.1193 18.3376 24.1193 18.3305C24.1193 18.3234 24.1193 18.3163 24.1193 18.3091C24.1193 18.302 24.1193 18.2949 24.1193 18.2878C24.1193 18.2807 24.1193 18.2736 24.1193 18.2665C24.1193 18.2594 24.1193 18.2523 24.1193 18.2452C24.1193 18.2381 24.1193 18.231 24.1193 18.2239C24.1193 18.2168 24.1193 18.2097 24.1193 18.2026C24.1193 18.1955 24.1193 18.1885 24.1193 18.1814C24.1193 18.1743 24.1193 18.1672 24.1193 18.1602C24.1193 18.1531 24.1193 18.146 24.1193 18.1389C24.1193 18.1319 24.1193 18.1248 24.1193 18.1178C24.1193 18.1107 24.1193 18.1037 24.1193 18.0966C24.1193 18.0895 24.1193 18.0825 24.1193 18.0755C24.1193 18.0684 24.1193 18.0614 24.1193 18.0543C24.1193 18.0473 24.1193 18.0403 24.1193 18.0332C24.1193 18.0262 24.1193 18.0192 24.1193 18.0122C24.1193 18.0051 24.1193 17.9981 24.1193 17.9911C24.1193 17.9841 24.1193 17.9771 24.1193 17.9701C24.1193 17.9631 24.1193 17.9561 24.1193 17.9491C24.1193 17.9421 24.1193 17.9351 24.1193 17.9281C24.1193 17.9211 24.1193 17.9141 24.1193 17.9071C24.1193 17.9001 24.1193 17.8932 24.1193 17.8862C24.1193 17.8792 24.1193 17.8722 24.1193 17.8653C24.1193 17.8583 24.1193 17.8514 24.1193 17.8444C24.1193 17.8374 24.1193 17.8305 24.1193 17.8235C24.1193 17.8166 24.1193 17.8096 24.1193 17.8027C24.1193 17.7958 24.1193 17.7888 24.1193 17.7819C24.1193 17.775 24.1193 17.768 24.1193 17.7611C24.1193 17.7542 24.1193 17.7473 24.1193 17.7403C24.1193 17.7334 24.1193 17.7265 24.1193 17.7196C24.1193 17.7127 24.1193 17.7058 24.1193 17.6989C24.1193 17.692 24.1193 17.6851 24.1193 17.6782C24.1193 17.6713 24.1193 17.6645 24.1193 17.6576C24.1193 17.6507 24.1193 17.6438 24.1193 17.637C24.1193 17.6301 24.1193 17.6232 24.1193 17.6164C24.1193 17.6095 24.1193 17.6027 24.1193 17.5958C24.1193 17.589 24.1193 17.5821 24.1193 17.5753C24.1193 17.5684 24.1193 17.5616 24.1193 17.5548C24.1193 17.5479 24.1193 17.5411 24.1193 17.5343C24.1193 17.5275 24.1193 17.5207 24.1193 17.5138C24.1193 17.507 24.1193 17.5002 24.1193 17.4934C24.1193 17.4866 24.1193 17.4798 24.1193 17.473C24.1193 17.4662 24.1193 17.4595 24.1193 17.4527C24.1193 17.4459 24.1193 17.4391 24.1193 17.4324C24.1193 17.4256 24.1193 17.4188 24.1193 17.4121C24.1193 17.4053 24.1193 17.3985 24.1193 17.3918C24.1193 17.385 24.1193 17.3783 24.1193 17.3716C24.1193 17.3648 24.1193 17.3581 24.1193 17.3514C24.1193 17.3446 24.1193 17.3379 24.1193 17.3312C24.1193 17.3245 24.1193 17.3178 24.1193 17.3111C24.1193 17.3044 24.1193 17.2977 24.1193 17.291C24.1193 17.2843 24.1193 17.2776 24.1193 17.2709C24.1193 17.2642 24.1193 17.2575 24.1193 17.2509C24.1193 17.2442 24.1193 17.2375 24.1193 17.2309C24.1193 17.2242 24.1193 17.2176 24.1193 17.2109C24.1193 17.2043 24.1193 17.1976 24.1193 17.191C24.1193 17.1843 24.1193 17.1777 24.1193 17.1711C24.1193 17.1645 24.1193 17.1578 24.1193 17.1512C24.1193 17.1446 24.1193 17.138 24.1193 17.1314C24.1193 17.1248 24.1193 17.1182 24.1193 17.1116C24.1193 17.105 24.1193 17.0984 24.1193 17.0919C24.1193 17.0853 24.1193 17.0787 24.1193 17.0721C24.1193 17.0656 24.1193 17.059 24.1193 17.0525C24.1193 17.0459 24.1193 17.0394 24.1193 17.0328C24.1193 17.0263 24.1193 17.0197 24.1193 17.0132C24.1193 17.0067 24.1193 17.0002 24.1193 16.9936C24.1193 16.9871 24.1193 16.9806 24.1193 16.9741C24.1193 16.9676 24.1193 16.9611 24.1193 16.9546C24.1193 16.9481 24.1193 16.9417 24.1193 16.9352C24.1193 16.9287 24.1193 16.9222 24.1193 16.9158C24.1193 16.9093 24.1193 16.9028 24.1193 16.8964C24.1193 16.8899 24.1193 16.8835 24.1193 16.8771C24.1193 16.8706 24.1193 16.8642 24.1193 16.8578C24.1193 16.8513 24.1193 16.8449 24.1193 16.8385C24.1193 16.8321 24.1193 16.8257 24.1193 16.8193C24.1193 16.8129 24.1193 16.8065 24.1193 16.8001C24.1193 16.7937 24.1193 16.7874 24.1193 16.781C24.1193 16.7746 24.1193 16.7683 24.1193 16.7619L21.1193 16.7619Z" fill="#AFE5FF"/>
<path d="M29.4764 38.1905C29.4764 39.0189 28.8048 39.6905 27.9764 39.6905C27.148 39.6905 26.4764 39.0189 26.4764 38.1905L29.4764 38.1905ZM24.1193 33.4286C24.1193 34.257 23.4477 34.9286 22.6193 34.9286C21.7908 34.9286 21.1193 34.257 21.1193 33.4286L24.1193 33.4286ZM26.4764 38.1905L26.4764 25.0953L29.4764 25.0953L29.4764 38.1905L26.4764 38.1905ZM21.1193 33.4286C21.1193 33.4222 21.1193 33.4159 21.1193 33.4095C21.1193 33.4031 21.1193 33.3968 21.1193 33.3904C21.1193 33.384 21.1193 33.3776 21.1193 33.3712C21.1193 33.3648 21.1193 33.3584 21.1193 33.352C21.1193 33.3456 21.1193 33.3392 21.1193 33.3327C21.1193 33.3263 21.1193 33.3199 21.1193 33.3134C21.1193 33.307 21.1193 33.3006 21.1193 33.2941C21.1193 33.2877 21.1193 33.2812 21.1193 33.2747C21.1193 33.2683 21.1193 33.2618 21.1193 33.2553C21.1193 33.2488 21.1193 33.2424 21.1193 33.2359C21.1193 33.2294 21.1193 33.2229 21.1193 33.2164C21.1193 33.2099 21.1193 33.2034 21.1193 33.1969C21.1193 33.1903 21.1193 33.1838 21.1193 33.1773C21.1193 33.1708 21.1193 33.1642 21.1193 33.1577C21.1193 33.1511 21.1193 33.1446 21.1193 33.138C21.1193 33.1315 21.1193 33.1249 21.1193 33.1184C21.1193 33.1118 21.1193 33.1052 21.1193 33.0986C21.1193 33.0921 21.1193 33.0855 21.1193 33.0789C21.1193 33.0723 21.1193 33.0657 21.1193 33.0591C21.1193 33.0525 21.1193 33.0459 21.1193 33.0393C21.1193 33.0327 21.1193 33.026 21.1193 33.0194C21.1193 33.0128 21.1193 33.0062 21.1193 32.9995C21.1193 32.9929 21.1193 32.9862 21.1193 32.9796C21.1193 32.9729 21.1193 32.9663 21.1193 32.9596C21.1193 32.953 21.1193 32.9463 21.1193 32.9396C21.1193 32.933 21.1193 32.9263 21.1193 32.9196C21.1193 32.9129 21.1193 32.9062 21.1193 32.8995C21.1193 32.8928 21.1193 32.8861 21.1193 32.8794C21.1193 32.8727 21.1193 32.866 21.1193 32.8593C21.1193 32.8526 21.1193 32.8459 21.1193 32.8391C21.1193 32.8324 21.1193 32.8257 21.1193 32.8189C21.1193 32.8122 21.1193 32.8054 21.1193 32.7987C21.1193 32.792 21.1193 32.7852 21.1193 32.7784C21.1193 32.7717 21.1193 32.7649 21.1193 32.7581C21.1193 32.7514 21.1193 32.7446 21.1193 32.7378C21.1193 32.731 21.1193 32.7243 21.1193 32.7175C21.1193 32.7107 21.1193 32.7039 21.1193 32.6971C21.1193 32.6903 21.1193 32.6835 21.1193 32.6767C21.1193 32.6698 21.1193 32.663 21.1193 32.6562C21.1193 32.6494 21.1193 32.6426 21.1193 32.6357C21.1193 32.6289 21.1193 32.6221 21.1193 32.6152C21.1193 32.6084 21.1193 32.6015 21.1193 32.5947C21.1193 32.5878 21.1193 32.581 21.1193 32.5741C21.1193 32.5673 21.1193 32.5604 21.1193 32.5535C21.1193 32.5467 21.1193 32.5398 21.1193 32.5329C21.1193 32.526 21.1193 32.5191 21.1193 32.5123C21.1193 32.5054 21.1193 32.4985 21.1193 32.4916C21.1193 32.4847 21.1193 32.4778 21.1193 32.4709C21.1193 32.464 21.1193 32.4571 21.1193 32.4501C21.1193 32.4432 21.1193 32.4363 21.1193 32.4294C21.1193 32.4225 21.1193 32.4155 21.1193 32.4086C21.1193 32.4017 21.1193 32.3947 21.1193 32.3878C21.1193 32.3809 21.1193 32.3739 21.1193 32.367C21.1193 32.36 21.1193 32.3531 21.1193 32.3461C21.1193 32.3391 21.1193 32.3322 21.1193 32.3252C21.1193 32.3182 21.1193 32.3113 21.1193 32.3043C21.1193 32.2973 21.1193 32.2903 21.1193 32.2834C21.1193 32.2764 21.1193 32.2694 21.1193 32.2624C21.1193 32.2554 21.1193 32.2484 21.1193 32.2414C21.1193 32.2344 21.1193 32.2274 21.1193 32.2204C21.1193 32.2134 21.1193 32.2064 21.1193 32.1994C21.1193 32.1924 21.1193 32.1854 21.1193 32.1783C21.1193 32.1713 21.1193 32.1643 21.1193 32.1573C21.1193 32.1502 21.1193 32.1432 21.1193 32.1362C21.1193 32.1291 21.1193 32.1221 21.1193 32.115C21.1193 32.108 21.1193 32.1009 21.1193 32.0939C21.1193 32.0868 21.1193 32.0798 21.1193 32.0727C21.1193 32.0657 21.1193 32.0586 21.1193 32.0515C21.1193 32.0445 21.1193 32.0374 21.1193 32.0303C21.1193 32.0233 21.1193 32.0162 21.1193 32.0091C21.1193 32.002 21.1193 31.995 21.1193 31.9879C21.1193 31.9808 21.1193 31.9737 21.1193 31.9666C21.1193 31.9595 21.1193 31.9524 21.1193 31.9453C21.1193 31.9382 21.1193 31.9311 21.1193 31.924C21.1193 31.9169 21.1193 31.9098 21.1193 31.9027C21.1193 31.8956 21.1193 31.8885 21.1193 31.8814C21.1193 31.8742 21.1193 31.8671 21.1193 31.86C21.1193 31.8529 21.1193 31.8457 21.1193 31.8386C21.1193 31.8315 21.1193 31.8244 21.1193 31.8172C21.1193 31.8101 21.1193 31.8029 21.1193 31.7958C21.1193 31.7887 21.1193 31.7815 21.1193 31.7744C21.1193 31.7672 21.1193 31.7601 21.1193 31.7529C21.1193 31.7458 21.1193 31.7386 21.1193 31.7315C21.1193 31.7243 21.1193 31.7171 21.1193 31.71C21.1193 31.7028 21.1193 31.6957 21.1193 31.6885C21.1193 31.6813 21.1193 31.6741 21.1193 31.667C21.1193 31.6598 21.1193 31.6526 21.1193 31.6454C21.1193 31.6383 21.1193 31.6311 21.1193 31.6239C21.1193 31.6167 21.1193 31.6095 21.1193 31.6024C21.1193 31.5952 21.1193 31.588 21.1193 31.5808C21.1193 31.5736 21.1193 31.5664 21.1193 31.5592C21.1193 31.552 21.1193 31.5448 21.1193 31.5376C21.1193 31.5304 21.1193 31.5232 21.1193 31.516C21.1193 31.5088 21.1193 31.5016 21.1193 31.4944C21.1193 31.4872 21.1193 31.4799 21.1193 31.4727C21.1193 31.4655 21.1193 31.4583 21.1193 31.4511C21.1193 31.4439 21.1193 31.4366 21.1193 31.4294C21.1193 31.4222 21.1193 31.415 21.1193 31.4077C21.1193 31.4005 21.1193 31.3933 21.1193 31.3861C21.1193 31.3788 21.1193 31.3716 21.1193 31.3644C21.1193 31.3571 21.1193 31.3499 21.1193 31.3427C21.1193 31.3354 21.1193 31.3282 21.1193 31.3209C21.1193 31.3137 21.1193 31.3065 21.1193 31.2992C21.1193 31.292 21.1193 31.2847 21.1193 31.2775C21.1193 31.2702 21.1193 31.263 21.1193 31.2557C21.1193 31.2485 21.1193 31.2412 21.1193 31.234C21.1193 31.2267 21.1193 31.2195 21.1193 31.2122C21.1193 31.2049 21.1193 31.1977 21.1193 31.1904C21.1193 31.1832 21.1193 31.1759 21.1193 31.1686C21.1193 31.1614 21.1193 31.1541 21.1193 31.1469C21.1193 31.1396 21.1193 31.1323 21.1193 31.1251C21.1193 31.1178 21.1193 31.1105 21.1193 31.1032C21.1193 31.096 21.1193 31.0887 21.1193 31.0814C21.1193 31.0742 21.1193 31.0669 21.1193 31.0596C21.1193 31.0523 21.1193 31.0451 21.1193 31.0378C21.1193 31.0305 21.1193 31.0232 21.1193 31.0159C21.1193 31.0087 21.1193 31.0014 21.1193 30.9941C21.1193 30.9868 21.1193 30.9795 21.1193 30.9723C21.1193 30.965 21.1193 30.9577 21.1193 30.9504C21.1193 30.9431 21.1193 30.9358 21.1193 30.9286C21.1193 30.9213 21.1193 30.914 21.1193 30.9067C21.1193 30.8994 21.1193 30.8921 21.1193 30.8848C21.1193 30.8775 21.1193 30.8703 21.1193 30.863C21.1193 30.8557 21.1193 30.8484 21.1193 30.8411C21.1193 30.8338 21.1193 30.8265 21.1193 30.8192C21.1193 30.8119 21.1193 30.8046 21.1193 30.7973C21.1193 30.79 21.1193 30.7827 21.1193 30.7755C21.1193 30.7682 21.1193 30.7609 21.1193 30.7536C21.1193 30.7463 21.1193 30.739 21.1193 30.7317C21.1193 30.7244 21.1193 30.7171 21.1193 30.7098C21.1193 30.7025 21.1193 30.6952 21.1193 30.6879C21.1193 30.6806 21.1193 30.6733 21.1193 30.666C21.1193 30.6587 21.1193 30.6514 21.1193 30.6441C21.1193 30.6368 21.1193 30.6295 21.1193 30.6222C21.1193 30.6149 21.1193 30.6076 21.1193 30.6003C21.1193 30.593 21.1193 30.5857 21.1193 30.5784C21.1193 30.5711 21.1193 30.5638 21.1193 30.5565C21.1193 30.5492 21.1193 30.5419 21.1193 30.5346C21.1193 30.5274 21.1193 30.5201 21.1193 30.5128C21.1193 30.5055 21.1193 30.4982 21.1193 30.4909C21.1193 30.4836 21.1193 30.4763 21.1193 30.469C21.1193 30.4617 21.1193 30.4544 21.1193 30.4471C21.1193 30.4398 21.1193 30.4325 21.1193 30.4252C21.1193 30.4179 21.1193 30.4106 21.1193 30.4033C21.1193 30.396 21.1193 30.3887 21.1193 30.3814C21.1193 30.3741 21.1193 30.3669 21.1193 30.3596C21.1193 30.3523 21.1193 30.345 21.1193 30.3377C21.1193 30.3304 21.1193 30.3231 21.1193 30.3158C21.1193 30.3085 21.1193 30.3012 21.1193 30.2939C21.1193 30.2867 21.1193 30.2794 21.1193 30.2721C21.1193 30.2648 21.1193 30.2575 21.1193 30.2502C21.1193 30.2429 21.1193 30.2357 21.1193 30.2284C21.1193 30.2211 21.1193 30.2138 21.1193 30.2065C21.1193 30.1992 21.1193 30.192 21.1193 30.1847C21.1193 30.1774 21.1193 30.1701 21.1193 30.1628C21.1193 30.1556 21.1193 30.1483 21.1193 30.141C21.1193 30.1337 21.1193 30.1265 21.1193 30.1192C21.1193 30.1119 21.1193 30.1046 21.1193 30.0974C21.1193 30.0901 21.1193 30.0828 21.1193 30.0756C21.1193 30.0683 21.1193 30.061 21.1193 30.0538C21.1193 30.0465 21.1193 30.0392 21.1193 30.032C21.1193 30.0247 21.1193 30.0174 21.1193 30.0102C21.1193 30.0029 21.1193 29.9956 21.1193 29.9884C21.1193 29.9811 21.1193 29.9739 21.1193 29.9666C21.1193 29.9594 21.1193 29.9521 21.1193 29.9449C21.1193 29.9376 21.1193 29.9303 21.1193 29.9231C21.1193 29.9158 21.1193 29.9086 21.1193 29.9014C21.1193 29.8941 21.1193 29.8869 21.1193 29.8796C21.1193 29.8724 21.1193 29.8651 21.1193 29.8579C21.1193 29.8507 21.1193 29.8434 21.1193 29.8362C21.1193 29.8289 21.1193 29.8217 21.1193 29.8145C21.1193 29.8072 21.1193 29.8 21.1193 29.7928C21.1193 29.7856 21.1193 29.7783 21.1193 29.7711C21.1193 29.7639 21.1193 29.7567 21.1193 29.7494C21.1193 29.7422 21.1193 29.735 21.1193 29.7278C21.1193 29.7206 21.1193 29.7133 21.1193 29.7061C21.1193 29.6989 21.1193 29.6917 21.1193 29.6845C21.1193 29.6773 21.1193 29.6701 21.1193 29.6629C21.1193 29.6557 21.1193 29.6485 21.1193 29.6413C21.1193 29.6341 21.1193 29.6269 21.1193 29.6197C21.1193 29.6125 21.1193 29.6053 21.1193 29.5981C21.1193 29.5909 21.1193 29.5837 21.1193 29.5765C21.1193 29.5694 21.1193 29.5622 21.1193 29.555C21.1193 29.5478 21.1193 29.5406 21.1193 29.5335C21.1193 29.5263 21.1193 29.5191 21.1193 29.5119C21.1193 29.5048 21.1193 29.4976 21.1193 29.4904C21.1193 29.4833 21.1193 29.4761 21.1193 29.4689C21.1193 29.4618 21.1193 29.4546 21.1193 29.4475C21.1193 29.4403 21.1193 29.4332 21.1193 29.426C21.1193 29.4189 21.1193 29.4117 21.1193 29.4046C21.1193 29.3974 21.1193 29.3903 21.1193 29.3831C21.1193 29.376 21.1193 29.3689 21.1193 29.3617C21.1193 29.3546 21.1193 29.3475 21.1193 29.3403C21.1193 29.3332 21.1193 29.3261 21.1193 29.319C21.1193 29.3118 21.1193 29.3047 21.1193 29.2976C21.1193 29.2905 21.1193 29.2834 21.1193 29.2763C21.1193 29.2692 21.1193 29.2621 21.1193 29.255C21.1193 29.2479 21.1193 29.2408 21.1193 29.2337C21.1193 29.2266 21.1193 29.2195 21.1193 29.2124C21.1193 29.2053 21.1193 29.1982 21.1193 29.1911C21.1193 29.184 21.1193 29.177 21.1193 29.1699C21.1193 29.1628 21.1193 29.1557 21.1193 29.1487C21.1193 29.1416 21.1193 29.1345 21.1193 29.1275C21.1193 29.1204 21.1193 29.1134 21.1193 29.1063C21.1193 29.0992 21.1193 29.0922 21.1193 29.0851C21.1193 29.0781 21.1193 29.071 21.1193 29.064C21.1193 29.057 21.1193 29.0499 21.1193 29.0429C21.1193 29.0359 21.1193 29.0288 21.1193 29.0218C21.1193 29.0148 21.1193 29.0078 21.1193 29.0007C21.1193 28.9937 21.1193 28.9867 21.1193 28.9797C21.1193 28.9727 21.1193 28.9657 21.1193 28.9587C21.1193 28.9517 21.1193 28.9447 21.1193 28.9377C21.1193 28.9307 21.1193 28.9237 21.1193 28.9167C21.1193 28.9097 21.1193 28.9027 21.1193 28.8957C21.1193 28.8888 21.1193 28.8818 21.1193 28.8748C21.1193 28.8678 21.1193 28.8609 21.1193 28.8539C21.1193 28.847 21.1193 28.84 21.1193 28.833C21.1193 28.8261 21.1193 28.8191 21.1193 28.8122C21.1193 28.8052 21.1193 28.7983 21.1193 28.7914C21.1193 28.7844 21.1193 28.7775 21.1193 28.7706C21.1193 28.7636 21.1193 28.7567 21.1193 28.7498C21.1193 28.7429 21.1193 28.7359 21.1193 28.729C21.1193 28.7221 21.1193 28.7152 21.1193 28.7083C21.1193 28.7014 21.1193 28.6945 21.1193 28.6876C21.1193 28.6807 21.1193 28.6738 21.1193 28.667C21.1193 28.6601 21.1193 28.6532 21.1193 28.6463C21.1193 28.6394 21.1193 28.6326 21.1193 28.6257C21.1193 28.6188 21.1193 28.612 21.1193 28.6051C21.1193 28.5983 21.1193 28.5914 21.1193 28.5846C21.1193 28.5777 21.1193 28.5709 21.1193 28.564C21.1193 28.5572 21.1193 28.5504 21.1193 28.5435C21.1193 28.5367 21.1193 28.5299 21.1193 28.5231C21.1193 28.5163 21.1193 28.5094 21.1193 28.5026C21.1193 28.4958 21.1193 28.489 21.1193 28.4822C21.1193 28.4754 21.1193 28.4686 21.1193 28.4619C21.1193 28.4551 21.1193 28.4483 21.1193 28.4415C21.1193 28.4347 21.1193 28.428 21.1193 28.4212C21.1193 28.4144 21.1193 28.4077 21.1193 28.4009C21.1193 28.3942 21.1193 28.3874 21.1193 28.3807C21.1193 28.3739 21.1193 28.3672 21.1193 28.3604C21.1193 28.3537 21.1193 28.347 21.1193 28.3403C21.1193 28.3335 21.1193 28.3268 21.1193 28.3201C21.1193 28.3134 21.1193 28.3067 21.1193 28.3C21.1193 28.2933 21.1193 28.2866 21.1193 28.2799C21.1193 28.2732 21.1193 28.2665 21.1193 28.2598C21.1193 28.2532 21.1193 28.2465 21.1193 28.2398C21.1193 28.2331 21.1193 28.2265 21.1193 28.2198C21.1193 28.2132 21.1193 28.2065 21.1193 28.1999C21.1193 28.1932 21.1193 28.1866 21.1193 28.18C21.1193 28.1733 21.1193 28.1667 21.1193 28.1601C21.1193 28.1535 21.1193 28.1468 21.1193 28.1402C21.1193 28.1336 21.1193 28.127 21.1193 28.1204C21.1193 28.1138 21.1193 28.1072 21.1193 28.1006C21.1193 28.0941 21.1193 28.0875 21.1193 28.0809C21.1193 28.0743 21.1193 28.0678 21.1193 28.0612C21.1193 28.0546 21.1193 28.0481 21.1193 28.0415C21.1193 28.035 21.1193 28.0284 21.1193 28.0219C21.1193 28.0154 21.1193 28.0088 21.1193 28.0023C21.1193 27.9958 21.1193 27.9893 21.1193 27.9828C21.1193 27.9763 21.1193 27.9697 21.1193 27.9632C21.1193 27.9568 21.1193 27.9503 21.1193 27.9438C21.1193 27.9373 21.1193 27.9308 21.1193 27.9243C21.1193 27.9179 21.1193 27.9114 21.1193 27.9049C21.1193 27.8985 21.1193 27.892 21.1193 27.8856C21.1193 27.8791 21.1193 27.8727 21.1193 27.8663C21.1193 27.8598 21.1193 27.8534 21.1193 27.847C21.1193 27.8406 21.1193 27.8341 21.1193 27.8277C21.1193 27.8213 21.1193 27.8149 21.1193 27.8085C21.1193 27.8022 21.1193 27.7958 21.1193 27.7894C21.1193 27.783 21.1193 27.7766 21.1193 27.7703C21.1193 27.7639 21.1193 27.7575 21.1193 27.7512C21.1193 27.7448 21.1193 27.7385 21.1193 27.7322C21.1193 27.7258 21.1193 27.7195 21.1193 27.7132C21.1193 27.7068 21.1193 27.7005 21.1193 27.6942C21.1193 27.6879 21.1193 27.6816 21.1193 27.6753C21.1193 27.669 21.1193 27.6627 21.1193 27.6565C21.1193 27.6502 21.1193 27.6439 21.1193 27.6376C21.1193 27.6314 21.1193 27.6251 21.1193 27.6189C21.1193 27.6126 21.1193 27.6064 21.1193 27.6001C21.1193 27.5939 21.1193 27.5877 21.1193 27.5814C21.1193 27.5752 21.1193 27.569 21.1193 27.5628C21.1193 27.5566 21.1193 27.5504 21.1193 27.5442C21.1193 27.538 21.1193 27.5318 21.1193 27.5257C21.1193 27.5195 21.1193 27.5133 21.1193 27.5072C21.1193 27.501 21.1193 27.4948 21.1193 27.4887C21.1193 27.4825 21.1193 27.4764 21.1193 27.4703C21.1193 27.4641 21.1193 27.458 21.1193 27.4519C21.1193 27.4458 21.1193 27.4397 21.1193 27.4336C21.1193 27.4275 21.1193 27.4214 21.1193 27.4153C21.1193 27.4092 21.1193 27.4032 21.1193 27.3971C21.1193 27.391 21.1193 27.385 21.1193 27.3789C21.1193 27.3729 21.1193 27.3668 21.1193 27.3608C21.1193 27.3547 21.1193 27.3487 21.1193 27.3427C21.1193 27.3367 21.1193 27.3307 21.1193 27.3247C21.1193 27.3187 21.1193 27.3127 21.1193 27.3067C21.1193 27.3007 21.1193 27.2947 21.1193 27.2887C21.1193 27.2828 21.1193 27.2768 21.1193 27.2709C21.1193 27.2649 21.1193 27.259 21.1193 27.253C21.1193 27.2471 21.1193 27.2412 21.1193 27.2352C21.1193 27.2293 21.1193 27.2234 21.1193 27.2175C21.1193 27.2116 21.1193 27.2057 21.1193 27.1998C21.1193 27.1939 21.1193 27.1881 21.1193 27.1822C21.1193 27.1763 21.1193 27.1705 21.1193 27.1646C21.1193 27.1588 21.1193 27.1529 21.1193 27.1471C21.1193 27.1412 21.1193 27.1354 21.1193 27.1296C21.1193 27.1238 21.1193 27.118 21.1193 27.1122C21.1193 27.1064 21.1193 27.1006 21.1193 27.0948C21.1193 27.089 21.1193 27.0832 21.1193 27.0775C21.1193 27.0717 21.1193 27.066 21.1193 27.0602C21.1193 27.0545 21.1193 27.0487 21.1193 27.043C21.1193 27.0373 21.1193 27.0316 21.1193 27.0258C21.1193 27.0201 21.1193 27.0144 21.1193 27.0087C21.1193 27.003 21.1193 26.9974 21.1193 26.9917C21.1193 26.986 21.1193 26.9803 21.1193 26.9747C21.1193 26.969 21.1193 26.9634 21.1193 26.9578C21.1193 26.9521 21.1193 26.9465 21.1193 26.9409C21.1193 26.9352 21.1193 26.9296 21.1193 26.924C21.1193 26.9184 21.1193 26.9128 21.1193 26.9073C21.1193 26.9017 21.1193 26.8961 21.1193 26.8905C21.1193 26.885 21.1193 26.8794 21.1193 26.8739C21.1193 26.8683 21.1193 26.8628 21.1193 26.8573C21.1193 26.8518 21.1193 26.8462 21.1193 26.8407C21.1193 26.8352 21.1193 26.8297 21.1193 26.8243C21.1193 26.8188 21.1193 26.8133 21.1193 26.8078C21.1193 26.8024 21.1193 26.7969 21.1193 26.7915C21.1193 26.786 21.1193 26.7806 21.1193 26.7751C21.1193 26.7697 21.1193 26.7643 21.1193 26.7589C21.1193 26.7535 21.1193 26.7481 21.1193 26.7427C21.1193 26.7373 21.1193 26.7319 21.1193 26.7266C21.1193 26.7212 21.1193 26.7158 21.1193 26.7105C21.1193 26.7051 21.1193 26.6998 21.1193 26.6945C21.1193 26.6891 21.1193 26.6838 21.1193 26.6785C21.1193 26.6732 21.1193 26.6679 21.1193 26.6626C21.1193 26.6573 21.1193 26.652 21.1193 26.6468C21.1193 26.6415 21.1193 26.6363 21.1193 26.631C21.1193 26.6258 21.1193 26.6205 21.1193 26.6153C21.1193 26.6101 21.1193 26.6049 21.1193 26.5996C21.1193 26.5944 21.1193 26.5892 21.1193 26.5841C21.1193 26.5789 21.1193 26.5737 21.1193 26.5685C21.1193 26.5634 21.1193 26.5582 21.1193 26.5531C21.1193 26.5479 21.1193 26.5428 21.1193 26.5377C21.1193 26.5326 21.1193 26.5274 21.1193 26.5223C21.1193 26.5172 21.1193 26.5122 21.1193 26.5071C21.1193 26.502 21.1193 26.4969 21.1193 26.4919C21.1193 26.4868 21.1193 26.4818 21.1193 26.4767C21.1193 26.4717 21.1193 26.4667 21.1193 26.4616C21.1193 26.4566 21.1193 26.4516 21.1193 26.4466C21.1193 26.4416 21.1193 26.4367 21.1193 26.4317C21.1193 26.4267 21.1193 26.4218 21.1193 26.4168C21.1193 26.4119 21.1193 26.4069 21.1193 26.402C21.1193 26.3971 21.1193 26.3921 21.1193 26.3872C21.1193 26.3823 21.1193 26.3774 21.1193 26.3726C21.1193 26.3677 21.1193 26.3628 21.1193 26.3579C21.1193 26.3531 21.1193 26.3482 21.1193 26.3434C21.1193 26.3386 21.1193 26.3337 21.1193 26.3289C21.1193 26.3241 21.1193 26.3193 21.1193 26.3145C21.1193 26.3097 21.1193 26.3049 21.1193 26.3001C21.1193 26.2954 21.1193 26.2906 21.1193 26.2859C21.1193 26.2811 21.1193 26.2764 21.1193 26.2717C21.1193 26.2669 21.1193 26.2622 21.1193 26.2575C21.1193 26.2528 21.1193 26.2481 21.1193 26.2435C21.1193 26.2388 21.1193 26.2341 21.1193 26.2295C21.1193 26.2248 21.1193 26.2202 21.1193 26.2155C21.1193 26.2109 21.1193 26.2063 21.1193 26.2017C21.1193 26.1971 21.1193 26.1925 21.1193 26.1879C21.1193 26.1833 21.1193 26.1787 21.1193 26.1742C21.1193 26.1696 21.1193 26.165 21.1193 26.1605C21.1193 26.156 21.1193 26.1514 21.1193 26.1469C21.1193 26.1424 21.1193 26.1379 21.1193 26.1334C21.1193 26.1289 21.1193 26.1245 21.1193 26.12C21.1193 26.1155 21.1193 26.1111 21.1193 26.1066C21.1193 26.1022 21.1193 26.0978 21.1193 26.0934C21.1193 26.0889 21.1193 26.0845 21.1193 26.0801C21.1193 26.0757 21.1193 26.0714 21.1193 26.067C21.1193 26.0626 21.1193 26.0583 21.1193 26.0539C21.1193 26.0496 21.1193 26.0453 21.1193 26.0409C21.1193 26.0366 21.1193 26.0323 21.1193 26.028C21.1193 26.0237 21.1193 26.0194 21.1193 26.0152C21.1193 26.0109 21.1193 26.0066 21.1193 26.0024C21.1193 25.9982 21.1193 25.9939 21.1193 25.9897C21.1193 25.9855 21.1193 25.9813 21.1193 25.9771C21.1193 25.9729 21.1193 25.9687 21.1193 25.9646C21.1193 25.9604 21.1193 25.9562 21.1193 25.9521C21.1193 25.9479 21.1193 25.9438 21.1193 25.9397C21.1193 25.9356 21.1193 25.9315 21.1193 25.9274C21.1193 25.9233 21.1193 25.9192 21.1193 25.9151C21.1193 25.9111 21.1193 25.907 21.1193 25.903C21.1193 25.8989 21.1193 25.8949 21.1193 25.8909C21.1193 25.8869 21.1193 25.8829 21.1193 25.8789C21.1193 25.8749 21.1193 25.8709 21.1193 25.867C21.1193 25.863 21.1193 25.8591 21.1193 25.8551C21.1193 25.8512 21.1193 25.8473 21.1193 25.8434C21.1193 25.8395 21.1193 25.8356 21.1193 25.8317C21.1193 25.8278 21.1193 25.8239 21.1193 25.8201C21.1193 25.8162 21.1193 25.8124 21.1193 25.8085C21.1193 25.8047 21.1193 25.8009 21.1193 25.7971C21.1193 25.7933 21.1193 25.7895 21.1193 25.7857C21.1193 25.7819 21.1193 25.7782 21.1193 25.7744C21.1193 25.7707 21.1193 25.7669 21.1193 25.7632C21.1193 25.7595 21.1193 25.7558 21.1193 25.7521C21.1193 25.7484 21.1193 25.7447 21.1193 25.7411C21.1193 25.7374 21.1193 25.7337 21.1193 25.7301C21.1193 25.7265 21.1193 25.7228 21.1193 25.7192C21.1193 25.7156 21.1193 25.712 21.1193 25.7084C21.1193 25.7048 21.1193 25.7013 21.1193 25.6977C21.1193 25.6942 21.1193 25.6906 21.1193 25.6871C21.1193 25.6835 21.1193 25.68 21.1193 25.6765C21.1193 25.673 21.1193 25.6695 21.1193 25.6661C21.1193 25.6626 21.1193 25.6591 21.1193 25.6557C21.1193 25.6522 21.1193 25.6488 21.1193 25.6454C21.1193 25.642 21.1193 25.6386 21.1193 25.6352C21.1193 25.6318 21.1193 25.6284 21.1193 25.6251C21.1193 25.6217 21.1193 25.6184 21.1193 25.615C21.1193 25.6117 21.1193 25.6084 21.1193 25.6051C21.1193 25.6018 21.1193 25.5985 21.1193 25.5952C21.1193 25.5919 21.1193 25.5887 21.1193 25.5854C21.1193 25.5822 21.1193 25.5789 21.1193 25.5757C21.1193 25.5725 21.1193 25.5693 21.1193 25.5661C21.1193 25.5629 21.1193 25.5598 21.1193 25.5566C21.1193 25.5534 21.1193 25.5503 21.1193 25.5472C21.1193 25.544 21.1193 25.5409 21.1193 25.5378C21.1193 25.5347 21.1193 25.5316 21.1193 25.5286C21.1193 25.5255 21.1193 25.5224 21.1193 25.5194C21.1193 25.5164 21.1193 25.5133 21.1193 25.5103C21.1193 25.5073 21.1193 25.5043 21.1193 25.5013C21.1193 25.4983 21.1193 25.4954 21.1193 25.4924C21.1193 25.4895 21.1193 25.4865 21.1193 25.4836C21.1193 25.4807 21.1193 25.4778 21.1193 25.4749C21.1193 25.472 21.1193 25.4691 21.1193 25.4663C21.1193 25.4634 21.1193 25.4606 21.1193 25.4577C21.1193 25.4549 21.1193 25.4521 21.1193 25.4493C21.1193 25.4465 21.1193 25.4437 21.1193 25.4409C21.1193 25.4381 21.1193 25.4354 21.1193 25.4326C21.1193 25.4299 21.1193 25.4272 21.1193 25.4245C21.1193 25.4218 21.1193 25.4191 21.1193 25.4164C21.1193 25.4137 21.1193 25.4111 21.1193 25.4084C21.1193 25.4058 21.1193 25.4031 21.1193 25.4005C21.1193 25.3979 21.1193 25.3953 21.1193 25.3927C21.1193 25.3901 21.1193 25.3875 21.1193 25.385C21.1193 25.3824 21.1193 25.3799 21.1193 25.3774C21.1193 25.3749 21.1193 25.3723 21.1193 25.3699C21.1193 25.3674 21.1193 25.3649 21.1193 25.3624C21.1193 25.36 21.1193 25.3575 21.1193 25.3551C21.1193 25.3527 21.1193 25.3502 21.1193 25.3478C21.1193 25.3455 21.1193 25.3431 21.1193 25.3407C21.1193 25.3383 21.1193 25.336 21.1193 25.3337C21.1193 25.3313 21.1193 25.329 21.1193 25.3267C21.1193 25.3244 21.1193 25.3221 21.1193 25.3198C21.1193 25.3176 21.1193 25.3153 21.1193 25.3131C21.1193 25.3109 21.1193 25.3086 21.1193 25.3064C21.1193 25.3042 21.1193 25.302 21.1193 25.2999C21.1193 25.2977 21.1193 25.2955 21.1193 25.2934C21.1193 25.2913 21.1193 25.2891 21.1193 25.287C21.1193 25.2849 21.1193 25.2828 21.1193 25.2808C21.1193 25.2787 21.1193 25.2766 21.1193 25.2746C21.1193 25.2725 21.1193 25.2705 21.1193 25.2685C21.1193 25.2665 21.1193 25.2645 21.1193 25.2625C21.1193 25.2605 21.1193 25.2586 21.1193 25.2566C21.1193 25.2547 21.1193 25.2528 21.1193 25.2509C21.1193 25.249 21.1193 25.2471 21.1193 25.2452C21.1193 25.2433 21.1193 25.2415 21.1193 25.2396C21.1193 25.2378 21.1193 25.2359 21.1193 25.2341C21.1193 25.2323 21.1193 25.2305 21.1193 25.2288C21.1193 25.227 21.1193 25.2252 21.1193 25.2235C21.1193 25.2217 21.1193 25.22 21.1193 25.2183C21.1193 25.2166 21.1193 25.2149 21.1193 25.2132C21.1193 25.2116 21.1193 25.2099 21.1193 25.2083C21.1193 25.2066 21.1193 25.205 21.1193 25.2034C21.1193 25.2018 21.1193 25.2002 21.1193 25.1986C21.1193 25.1971 21.1193 25.1955 21.1193 25.194C21.1193 25.1924 21.1193 25.1909 21.1193 25.1894C21.1193 25.1879 21.1193 25.1864 21.1193 25.185C21.1193 25.1835 21.1193 25.182 21.1193 25.1806C21.1193 25.1792 21.1193 25.1778 21.1193 25.1764C21.1193 25.175 21.1193 25.1736 21.1193 25.1722C21.1193 25.1709 21.1193 25.1695 21.1193 25.1682C21.1193 25.1669 21.1193 25.1655 21.1193 25.1643C21.1193 25.163 21.1193 25.1617 21.1193 25.1604C21.1193 25.1592 21.1193 25.1579 21.1193 25.1567C21.1193 25.1555 21.1193 25.1543 21.1193 25.1531C21.1193 25.1519 21.1193 25.1507 21.1193 25.1496C21.1193 25.1484 21.1193 25.1473 21.1193 25.1462C21.1193 25.1451 21.1193 25.144 21.1193 25.1429C21.1193 25.1418 21.1193 25.1407 21.1193 25.1397C21.1193 25.1387 21.1193 25.1376 21.1193 25.1366C21.1193 25.1356 21.1193 25.1346 21.1193 25.1336C21.1193 25.1327 21.1193 25.1317 21.1193 25.1308C21.1193 25.1298 21.1193 25.1289 21.1193 25.128C21.1193 25.1271 21.1193 25.1262 21.1193 25.1254C21.1193 25.1245 21.1193 25.1237 21.1193 25.1228C21.1193 25.122 21.1193 25.1212 21.1193 25.1204C21.1193 25.1196 21.1193 25.1188 21.1193 25.1181C21.1193 25.1173 21.1193 25.1166 21.1193 25.1159C21.1193 25.1152 21.1193 25.1145 21.1193 25.1138C21.1193 25.1131 21.1193 25.1124 21.1193 25.1118C21.1193 25.1112 21.1193 25.1105 21.1193 25.1099C21.1193 25.1093 21.1193 25.1087 21.1193 25.1082C21.1193 25.1076 21.1193 25.107 21.1193 25.1065C21.1193 25.106 21.1193 25.1055 21.1193 25.105C21.1193 25.1045 21.1193 25.104 21.1193 25.1035C21.1193 25.1031 21.1193 25.1026 21.1193 25.1022C21.1193 25.1018 21.1193 25.1014 21.1193 25.101C21.1193 25.1006 21.1193 25.1003 21.1193 25.0999C21.1193 25.0996 21.1193 25.0993 21.1193 25.099C21.1193 25.0986 21.1193 25.0984 21.1193 25.0981C21.1193 25.0978 21.1193 25.0976 21.1193 25.0973C21.1193 25.0971 21.1193 25.0969 21.1193 25.0967C21.1193 25.0965 21.1193 25.0963 21.1193 25.0962C21.1193 25.096 21.1193 25.0959 21.1193 25.0958C21.1193 25.0957 21.1193 25.0956 21.1193 25.0955C21.1193 25.0954 21.1193 25.0954 21.1193 25.0953C21.1193 25.0953 21.1193 25.0953 22.6193 25.0953C24.1193 25.0953 24.1193 25.0953 24.1193 25.0953C24.1193 25.0954 24.1193 25.0954 24.1193 25.0955C24.1193 25.0956 24.1193 25.0957 24.1193 25.0958C24.1193 25.0959 24.1193 25.096 24.1193 25.0962C24.1193 25.0963 24.1193 25.0965 24.1193 25.0967C24.1193 25.0969 24.1193 25.0971 24.1193 25.0973C24.1193 25.0976 24.1193 25.0978 24.1193 25.0981C24.1193 25.0984 24.1193 25.0986 24.1193 25.099C24.1193 25.0993 24.1193 25.0996 24.1193 25.0999C24.1193 25.1003 24.1193 25.1006 24.1193 25.101C24.1193 25.1014 24.1193 25.1018 24.1193 25.1022C24.1193 25.1026 24.1193 25.1031 24.1193 25.1035C24.1193 25.104 24.1193 25.1045 24.1193 25.105C24.1193 25.1055 24.1193 25.106 24.1193 25.1065C24.1193 25.107 24.1193 25.1076 24.1193 25.1082C24.1193 25.1087 24.1193 25.1093 24.1193 25.1099C24.1193 25.1105 24.1193 25.1112 24.1193 25.1118C24.1193 25.1124 24.1193 25.1131 24.1193 25.1138C24.1193 25.1145 24.1193 25.1152 24.1193 25.1159C24.1193 25.1166 24.1193 25.1173 24.1193 25.1181C24.1193 25.1188 24.1193 25.1196 24.1193 25.1204C24.1193 25.1212 24.1193 25.122 24.1193 25.1228C24.1193 25.1237 24.1193 25.1245 24.1193 25.1254C24.1193 25.1262 24.1193 25.1271 24.1193 25.128C24.1193 25.1289 24.1193 25.1298 24.1193 25.1308C24.1193 25.1317 24.1193 25.1327 24.1193 25.1336C24.1193 25.1346 24.1193 25.1356 24.1193 25.1366C24.1193 25.1376 24.1193 25.1387 24.1193 25.1397C24.1193 25.1407 24.1193 25.1418 24.1193 25.1429C24.1193 25.144 24.1193 25.1451 24.1193 25.1462C24.1193 25.1473 24.1193 25.1484 24.1193 25.1496C24.1193 25.1507 24.1193 25.1519 24.1193 25.1531C24.1193 25.1543 24.1193 25.1555 24.1193 25.1567C24.1193 25.1579 24.1193 25.1592 24.1193 25.1604C24.1193 25.1617 24.1193 25.163 24.1193 25.1643C24.1193 25.1655 24.1193 25.1669 24.1193 25.1682C24.1193 25.1695 24.1193 25.1709 24.1193 25.1722C24.1193 25.1736 24.1193 25.175 24.1193 25.1764C24.1193 25.1778 24.1193 25.1792 24.1193 25.1806C24.1193 25.182 24.1193 25.1835 24.1193 25.185C24.1193 25.1864 24.1193 25.1879 24.1193 25.1894C24.1193 25.1909 24.1193 25.1924 24.1193 25.194C24.1193 25.1955 24.1193 25.1971 24.1193 25.1986C24.1193 25.2002 24.1193 25.2018 24.1193 25.2034C24.1193 25.205 24.1193 25.2066 24.1193 25.2083C24.1193 25.2099 24.1193 25.2116 24.1193 25.2132C24.1193 25.2149 24.1193 25.2166 24.1193 25.2183C24.1193 25.22 24.1193 25.2217 24.1193 25.2235C24.1193 25.2252 24.1193 25.227 24.1193 25.2288C24.1193 25.2305 24.1193 25.2323 24.1193 25.2341C24.1193 25.2359 24.1193 25.2378 24.1193 25.2396C24.1193 25.2415 24.1193 25.2433 24.1193 25.2452C24.1193 25.2471 24.1193 25.249 24.1193 25.2509C24.1193 25.2528 24.1193 25.2547 24.1193 25.2566C24.1193 25.2586 24.1193 25.2605 24.1193 25.2625C24.1193 25.2645 24.1193 25.2665 24.1193 25.2685C24.1193 25.2705 24.1193 25.2725 24.1193 25.2746C24.1193 25.2766 24.1193 25.2787 24.1193 25.2808C24.1193 25.2828 24.1193 25.2849 24.1193 25.287C24.1193 25.2891 24.1193 25.2913 24.1193 25.2934C24.1193 25.2955 24.1193 25.2977 24.1193 25.2999C24.1193 25.302 24.1193 25.3042 24.1193 25.3064C24.1193 25.3086 24.1193 25.3109 24.1193 25.3131C24.1193 25.3153 24.1193 25.3176 24.1193 25.3198C24.1193 25.3221 24.1193 25.3244 24.1193 25.3267C24.1193 25.329 24.1193 25.3313 24.1193 25.3337C24.1193 25.336 24.1193 25.3383 24.1193 25.3407C24.1193 25.3431 24.1193 25.3455 24.1193 25.3479C24.1193 25.3502 24.1193 25.3527 24.1193 25.3551C24.1193 25.3575 24.1193 25.36 24.1193 25.3624C24.1193 25.3649 24.1193 25.3674 24.1193 25.3699C24.1193 25.3723 24.1193 25.3749 24.1193 25.3774C24.1193 25.3799 24.1193 25.3824 24.1193 25.385C24.1193 25.3875 24.1193 25.3901 24.1193 25.3927C24.1193 25.3953 24.1193 25.3979 24.1193 25.4005C24.1193 25.4031 24.1193 25.4058 24.1193 25.4084C24.1193 25.4111 24.1193 25.4137 24.1193 25.4164C24.1193 25.4191 24.1193 25.4218 24.1193 25.4245C24.1193 25.4272 24.1193 25.4299 24.1193 25.4327C24.1193 25.4354 24.1193 25.4381 24.1193 25.4409C24.1193 25.4437 24.1193 25.4465 24.1193 25.4493C24.1193 25.4521 24.1193 25.4549 24.1193 25.4577C24.1193 25.4606 24.1193 25.4634 24.1193 25.4663C24.1193 25.4691 24.1193 25.472 24.1193 25.4749C24.1193 25.4778 24.1193 25.4807 24.1193 25.4836C24.1193 25.4865 24.1193 25.4895 24.1193 25.4924C24.1193 25.4954 24.1193 25.4983 24.1193 25.5013C24.1193 25.5043 24.1193 25.5073 24.1193 25.5103C24.1193 25.5133 24.1193 25.5164 24.1193 25.5194C24.1193 25.5224 24.1193 25.5255 24.1193 25.5286C24.1193 25.5316 24.1193 25.5347 24.1193 25.5378C24.1193 25.5409 24.1193 25.544 24.1193 25.5472C24.1193 25.5503 24.1193 25.5534 24.1193 25.5566C24.1193 25.5598 24.1193 25.5629 24.1193 25.5661C24.1193 25.5693 24.1193 25.5725 24.1193 25.5757C24.1193 25.5789 24.1193 25.5822 24.1193 25.5854C24.1193 25.5887 24.1193 25.5919 24.1193 25.5952C24.1193 25.5985 24.1193 25.6018 24.1193 25.6051C24.1193 25.6084 24.1193 25.6117 24.1193 25.615C24.1193 25.6184 24.1193 25.6217 24.1193 25.6251C24.1193 25.6284 24.1193 25.6318 24.1193 25.6352C24.1193 25.6386 24.1193 25.642 24.1193 25.6454C24.1193 25.6488 24.1193 25.6522 24.1193 25.6557C24.1193 25.6591 24.1193 25.6626 24.1193 25.6661C24.1193 25.6695 24.1193 25.673 24.1193 25.6765C24.1193 25.68 24.1193 25.6835 24.1193 25.6871C24.1193 25.6906 24.1193 25.6942 24.1193 25.6977C24.1193 25.7013 24.1193 25.7048 24.1193 25.7084C24.1193 25.712 24.1193 25.7156 24.1193 25.7192C24.1193 25.7228 24.1193 25.7265 24.1193 25.7301C24.1193 25.7337 24.1193 25.7374 24.1193 25.7411C24.1193 25.7447 24.1193 25.7484 24.1193 25.7521C24.1193 25.7558 24.1193 25.7595 24.1193 25.7632C24.1193 25.7669 24.1193 25.7707 24.1193 25.7744C24.1193 25.7782 24.1193 25.7819 24.1193 25.7857C24.1193 25.7895 24.1193 25.7933 24.1193 25.7971C24.1193 25.8009 24.1193 25.8047 24.1193 25.8085C24.1193 25.8124 24.1193 25.8162 24.1193 25.8201C24.1193 25.8239 24.1193 25.8278 24.1193 25.8317C24.1193 25.8356 24.1193 25.8395 24.1193 25.8434C24.1193 25.8473 24.1193 25.8512 24.1193 25.8551C24.1193 25.8591 24.1193 25.863 24.1193 25.867C24.1193 25.8709 24.1193 25.8749 24.1193 25.8789C24.1193 25.8829 24.1193 25.8869 24.1193 25.8909C24.1193 25.8949 24.1193 25.8989 24.1193 25.903C24.1193 25.907 24.1193 25.9111 24.1193 25.9151C24.1193 25.9192 24.1193 25.9233 24.1193 25.9274C24.1193 25.9315 24.1193 25.9356 24.1193 25.9397C24.1193 25.9438 24.1193 25.9479 24.1193 25.9521C24.1193 25.9562 24.1193 25.9604 24.1193 25.9646C24.1193 25.9687 24.1193 25.9729 24.1193 25.9771C24.1193 25.9813 24.1193 25.9855 24.1193 25.9897C24.1193 25.9939 24.1193 25.9982 24.1193 26.0024C24.1193 26.0066 24.1193 26.0109 24.1193 26.0152C24.1193 26.0194 24.1193 26.0237 24.1193 26.028C24.1193 26.0323 24.1193 26.0366 24.1193 26.0409C24.1193 26.0453 24.1193 26.0496 24.1193 26.0539C24.1193 26.0583 24.1193 26.0626 24.1193 26.067C24.1193 26.0714 24.1193 26.0757 24.1193 26.0801C24.1193 26.0845 24.1193 26.0889 24.1193 26.0934C24.1193 26.0978 24.1193 26.1022 24.1193 26.1066C24.1193 26.1111 24.1193 26.1155 24.1193 26.12C24.1193 26.1245 24.1193 26.1289 24.1193 26.1334C24.1193 26.1379 24.1193 26.1424 24.1193 26.1469C24.1193 26.1514 24.1193 26.156 24.1193 26.1605C24.1193 26.165 24.1193 26.1696 24.1193 26.1742C24.1193 26.1787 24.1193 26.1833 24.1193 26.1879C24.1193 26.1925 24.1193 26.1971 24.1193 26.2017C24.1193 26.2063 24.1193 26.2109 24.1193 26.2155C24.1193 26.2202 24.1193 26.2248 24.1193 26.2295C24.1193 26.2341 24.1193 26.2388 24.1193 26.2435C24.1193 26.2481 24.1193 26.2528 24.1193 26.2575C24.1193 26.2622 24.1193 26.2669 24.1193 26.2717C24.1193 26.2764 24.1193 26.2811 24.1193 26.2859C24.1193 26.2906 24.1193 26.2954 24.1193 26.3001C24.1193 26.3049 24.1193 26.3097 24.1193 26.3145C24.1193 26.3193 24.1193 26.3241 24.1193 26.3289C24.1193 26.3337 24.1193 26.3386 24.1193 26.3434C24.1193 26.3482 24.1193 26.3531 24.1193 26.3579C24.1193 26.3628 24.1193 26.3677 24.1193 26.3726C24.1193 26.3774 24.1193 26.3823 24.1193 26.3872C24.1193 26.3921 24.1193 26.3971 24.1193 26.402C24.1193 26.4069 24.1193 26.4119 24.1193 26.4168C24.1193 26.4218 24.1193 26.4267 24.1193 26.4317C24.1193 26.4367 24.1193 26.4416 24.1193 26.4466C24.1193 26.4516 24.1193 26.4566 24.1193 26.4616C24.1193 26.4667 24.1193 26.4717 24.1193 26.4767C24.1193 26.4818 24.1193 26.4868 24.1193 26.4919C24.1193 26.4969 24.1193 26.502 24.1193 26.5071C24.1193 26.5122 24.1193 26.5172 24.1193 26.5223C24.1193 26.5274 24.1193 26.5326 24.1193 26.5377C24.1193 26.5428 24.1193 26.5479 24.1193 26.5531C24.1193 26.5582 24.1193 26.5634 24.1193 26.5685C24.1193 26.5737 24.1193 26.5789 24.1193 26.5841C24.1193 26.5892 24.1193 26.5944 24.1193 26.5996C24.1193 26.6049 24.1193 26.6101 24.1193 26.6153C24.1193 26.6205 24.1193 26.6258 24.1193 26.631C24.1193 26.6363 24.1193 26.6415 24.1193 26.6468C24.1193 26.652 24.1193 26.6573 24.1193 26.6626C24.1193 26.6679 24.1193 26.6732 24.1193 26.6785C24.1193 26.6838 24.1193 26.6891 24.1193 26.6945C24.1193 26.6998 24.1193 26.7051 24.1193 26.7105C24.1193 26.7158 24.1193 26.7212 24.1193 26.7266C24.1193 26.7319 24.1193 26.7373 24.1193 26.7427C24.1193 26.7481 24.1193 26.7535 24.1193 26.7589C24.1193 26.7643 24.1193 26.7697 24.1193 26.7751C24.1193 26.7806 24.1193 26.786 24.1193 26.7915C24.1193 26.7969 24.1193 26.8024 24.1193 26.8078C24.1193 26.8133 24.1193 26.8188 24.1193 26.8243C24.1193 26.8297 24.1193 26.8352 24.1193 26.8407C24.1193 26.8462 24.1193 26.8518 24.1193 26.8573C24.1193 26.8628 24.1193 26.8683 24.1193 26.8739C24.1193 26.8794 24.1193 26.885 24.1193 26.8906C24.1193 26.8961 24.1193 26.9017 24.1193 26.9073C24.1193 26.9128 24.1193 26.9184 24.1193 26.924C24.1193 26.9296 24.1193 26.9352 24.1193 26.9409C24.1193 26.9465 24.1193 26.9521 24.1193 26.9578C24.1193 26.9634 24.1193 26.969 24.1193 26.9747C24.1193 26.9803 24.1193 26.986 24.1193 26.9917C24.1193 26.9974 24.1193 27.003 24.1193 27.0087C24.1193 27.0144 24.1193 27.0201 24.1193 27.0258C24.1193 27.0316 24.1193 27.0373 24.1193 27.043C24.1193 27.0487 24.1193 27.0545 24.1193 27.0602C24.1193 27.066 24.1193 27.0717 24.1193 27.0775C24.1193 27.0832 24.1193 27.089 24.1193 27.0948C24.1193 27.1006 24.1193 27.1064 24.1193 27.1122C24.1193 27.118 24.1193 27.1238 24.1193 27.1296C24.1193 27.1354 24.1193 27.1412 24.1193 27.1471C24.1193 27.1529 24.1193 27.1588 24.1193 27.1646C24.1193 27.1705 24.1193 27.1763 24.1193 27.1822C24.1193 27.1881 24.1193 27.1939 24.1193 27.1998C24.1193 27.2057 24.1193 27.2116 24.1193 27.2175C24.1193 27.2234 24.1193 27.2293 24.1193 27.2352C24.1193 27.2412 24.1193 27.2471 24.1193 27.253C24.1193 27.259 24.1193 27.2649 24.1193 27.2709C24.1193 27.2768 24.1193 27.2828 24.1193 27.2887C24.1193 27.2947 24.1193 27.3007 24.1193 27.3067C24.1193 27.3127 24.1193 27.3187 24.1193 27.3247C24.1193 27.3307 24.1193 27.3367 24.1193 27.3427C24.1193 27.3487 24.1193 27.3547 24.1193 27.3608C24.1193 27.3668 24.1193 27.3729 24.1193 27.3789C24.1193 27.385 24.1193 27.391 24.1193 27.3971C24.1193 27.4032 24.1193 27.4092 24.1193 27.4153C24.1193 27.4214 24.1193 27.4275 24.1193 27.4336C24.1193 27.4397 24.1193 27.4458 24.1193 27.4519C24.1193 27.458 24.1193 27.4641 24.1193 27.4703C24.1193 27.4764 24.1193 27.4825 24.1193 27.4887C24.1193 27.4948 24.1193 27.501 24.1193 27.5072C24.1193 27.5133 24.1193 27.5195 24.1193 27.5257C24.1193 27.5318 24.1193 27.538 24.1193 27.5442C24.1193 27.5504 24.1193 27.5566 24.1193 27.5628C24.1193 27.569 24.1193 27.5752 24.1193 27.5814C24.1193 27.5877 24.1193 27.5939 24.1193 27.6001C24.1193 27.6064 24.1193 27.6126 24.1193 27.6189C24.1193 27.6251 24.1193 27.6314 24.1193 27.6376C24.1193 27.6439 24.1193 27.6502 24.1193 27.6565C24.1193 27.6627 24.1193 27.669 24.1193 27.6753C24.1193 27.6816 24.1193 27.6879 24.1193 27.6942C24.1193 27.7005 24.1193 27.7068 24.1193 27.7132C24.1193 27.7195 24.1193 27.7258 24.1193 27.7322C24.1193 27.7385 24.1193 27.7448 24.1193 27.7512C24.1193 27.7575 24.1193 27.7639 24.1193 27.7703C24.1193 27.7766 24.1193 27.783 24.1193 27.7894C24.1193 27.7958 24.1193 27.8022 24.1193 27.8085C24.1193 27.8149 24.1193 27.8213 24.1193 27.8277C24.1193 27.8341 24.1193 27.8406 24.1193 27.847C24.1193 27.8534 24.1193 27.8598 24.1193 27.8663C24.1193 27.8727 24.1193 27.8791 24.1193 27.8856C24.1193 27.892 24.1193 27.8985 24.1193 27.9049C24.1193 27.9114 24.1193 27.9179 24.1193 27.9243C24.1193 27.9308 24.1193 27.9373 24.1193 27.9438C24.1193 27.9503 24.1193 27.9568 24.1193 27.9632C24.1193 27.9697 24.1193 27.9763 24.1193 27.9828C24.1193 27.9893 24.1193 27.9958 24.1193 28.0023C24.1193 28.0088 24.1193 28.0154 24.1193 28.0219C24.1193 28.0284 24.1193 28.035 24.1193 28.0415C24.1193 28.0481 24.1193 28.0546 24.1193 28.0612C24.1193 28.0678 24.1193 28.0743 24.1193 28.0809C24.1193 28.0875 24.1193 28.0941 24.1193 28.1006C24.1193 28.1072 24.1193 28.1138 24.1193 28.1204C24.1193 28.127 24.1193 28.1336 24.1193 28.1402C24.1193 28.1468 24.1193 28.1535 24.1193 28.1601C24.1193 28.1667 24.1193 28.1733 24.1193 28.18C24.1193 28.1866 24.1193 28.1932 24.1193 28.1999C24.1193 28.2065 24.1193 28.2132 24.1193 28.2198C24.1193 28.2265 24.1193 28.2331 24.1193 28.2398C24.1193 28.2465 24.1193 28.2532 24.1193 28.2598C24.1193 28.2665 24.1193 28.2732 24.1193 28.2799C24.1193 28.2866 24.1193 28.2933 24.1193 28.3C24.1193 28.3067 24.1193 28.3134 24.1193 28.3201C24.1193 28.3268 24.1193 28.3335 24.1193 28.3403C24.1193 28.347 24.1193 28.3537 24.1193 28.3604C24.1193 28.3672 24.1193 28.3739 24.1193 28.3807C24.1193 28.3874 24.1193 28.3942 24.1193 28.4009C24.1193 28.4077 24.1193 28.4144 24.1193 28.4212C24.1193 28.428 24.1193 28.4347 24.1193 28.4415C24.1193 28.4483 24.1193 28.4551 24.1193 28.4619C24.1193 28.4686 24.1193 28.4754 24.1193 28.4822C24.1193 28.489 24.1193 28.4958 24.1193 28.5026C24.1193 28.5094 24.1193 28.5163 24.1193 28.5231C24.1193 28.5299 24.1193 28.5367 24.1193 28.5435C24.1193 28.5504 24.1193 28.5572 24.1193 28.564C24.1193 28.5709 24.1193 28.5777 24.1193 28.5846C24.1193 28.5914 24.1193 28.5983 24.1193 28.6051C24.1193 28.612 24.1193 28.6188 24.1193 28.6257C24.1193 28.6326 24.1193 28.6394 24.1193 28.6463C24.1193 28.6532 24.1193 28.6601 24.1193 28.667C24.1193 28.6738 24.1193 28.6807 24.1193 28.6876C24.1193 28.6945 24.1193 28.7014 24.1193 28.7083C24.1193 28.7152 24.1193 28.7221 24.1193 28.729C24.1193 28.7359 24.1193 28.7429 24.1193 28.7498C24.1193 28.7567 24.1193 28.7636 24.1193 28.7706C24.1193 28.7775 24.1193 28.7844 24.1193 28.7914C24.1193 28.7983 24.1193 28.8052 24.1193 28.8122C24.1193 28.8191 24.1193 28.8261 24.1193 28.833C24.1193 28.84 24.1193 28.847 24.1193 28.8539C24.1193 28.8609 24.1193 28.8678 24.1193 28.8748C24.1193 28.8818 24.1193 28.8888 24.1193 28.8957C24.1193 28.9027 24.1193 28.9097 24.1193 28.9167C24.1193 28.9237 24.1193 28.9307 24.1193 28.9377C24.1193 28.9447 24.1193 28.9517 24.1193 28.9587C24.1193 28.9657 24.1193 28.9727 24.1193 28.9797C24.1193 28.9867 24.1193 28.9937 24.1193 29.0007C24.1193 29.0078 24.1193 29.0148 24.1193 29.0218C24.1193 29.0288 24.1193 29.0359 24.1193 29.0429C24.1193 29.0499 24.1193 29.057 24.1193 29.064C24.1193 29.071 24.1193 29.0781 24.1193 29.0851C24.1193 29.0922 24.1193 29.0992 24.1193 29.1063C24.1193 29.1134 24.1193 29.1204 24.1193 29.1275C24.1193 29.1345 24.1193 29.1416 24.1193 29.1487C24.1193 29.1557 24.1193 29.1628 24.1193 29.1699C24.1193 29.177 24.1193 29.184 24.1193 29.1911C24.1193 29.1982 24.1193 29.2053 24.1193 29.2124C24.1193 29.2195 24.1193 29.2266 24.1193 29.2337C24.1193 29.2408 24.1193 29.2479 24.1193 29.255C24.1193 29.2621 24.1193 29.2692 24.1193 29.2763C24.1193 29.2834 24.1193 29.2905 24.1193 29.2976C24.1193 29.3047 24.1193 29.3118 24.1193 29.319C24.1193 29.3261 24.1193 29.3332 24.1193 29.3403C24.1193 29.3475 24.1193 29.3546 24.1193 29.3617C24.1193 29.3689 24.1193 29.376 24.1193 29.3831C24.1193 29.3903 24.1193 29.3974 24.1193 29.4046C24.1193 29.4117 24.1193 29.4189 24.1193 29.426C24.1193 29.4332 24.1193 29.4403 24.1193 29.4475C24.1193 29.4546 24.1193 29.4618 24.1193 29.4689C24.1193 29.4761 24.1193 29.4833 24.1193 29.4904C24.1193 29.4976 24.1193 29.5048 24.1193 29.5119C24.1193 29.5191 24.1193 29.5263 24.1193 29.5335C24.1193 29.5406 24.1193 29.5478 24.1193 29.555C24.1193 29.5622 24.1193 29.5694 24.1193 29.5765C24.1193 29.5837 24.1193 29.5909 24.1193 29.5981C24.1193 29.6053 24.1193 29.6125 24.1193 29.6197C24.1193 29.6269 24.1193 29.6341 24.1193 29.6413C24.1193 29.6485 24.1193 29.6557 24.1193 29.6629C24.1193 29.6701 24.1193 29.6773 24.1193 29.6845C24.1193 29.6917 24.1193 29.6989 24.1193 29.7061C24.1193 29.7133 24.1193 29.7206 24.1193 29.7278C24.1193 29.735 24.1193 29.7422 24.1193 29.7494C24.1193 29.7567 24.1193 29.7639 24.1193 29.7711C24.1193 29.7783 24.1193 29.7856 24.1193 29.7928C24.1193 29.8 24.1193 29.8072 24.1193 29.8145C24.1193 29.8217 24.1193 29.8289 24.1193 29.8362C24.1193 29.8434 24.1193 29.8507 24.1193 29.8579C24.1193 29.8651 24.1193 29.8724 24.1193 29.8796C24.1193 29.8869 24.1193 29.8941 24.1193 29.9014C24.1193 29.9086 24.1193 29.9158 24.1193 29.9231C24.1193 29.9303 24.1193 29.9376 24.1193 29.9449C24.1193 29.9521 24.1193 29.9594 24.1193 29.9666C24.1193 29.9739 24.1193 29.9811 24.1193 29.9884C24.1193 29.9956 24.1193 30.0029 24.1193 30.0102C24.1193 30.0174 24.1193 30.0247 24.1193 30.032C24.1193 30.0392 24.1193 30.0465 24.1193 30.0538C24.1193 30.061 24.1193 30.0683 24.1193 30.0756C24.1193 30.0828 24.1193 30.0901 24.1193 30.0974C24.1193 30.1046 24.1193 30.1119 24.1193 30.1192C24.1193 30.1265 24.1193 30.1337 24.1193 30.141C24.1193 30.1483 24.1193 30.1556 24.1193 30.1628C24.1193 30.1701 24.1193 30.1774 24.1193 30.1847C24.1193 30.192 24.1193 30.1992 24.1193 30.2065C24.1193 30.2138 24.1193 30.2211 24.1193 30.2284C24.1193 30.2357 24.1193 30.2429 24.1193 30.2502C24.1193 30.2575 24.1193 30.2648 24.1193 30.2721C24.1193 30.2794 24.1193 30.2867 24.1193 30.2939C24.1193 30.3012 24.1193 30.3085 24.1193 30.3158C24.1193 30.3231 24.1193 30.3304 24.1193 30.3377C24.1193 30.345 24.1193 30.3523 24.1193 30.3596C24.1193 30.3669 24.1193 30.3741 24.1193 30.3814C24.1193 30.3887 24.1193 30.396 24.1193 30.4033C24.1193 30.4106 24.1193 30.4179 24.1193 30.4252C24.1193 30.4325 24.1193 30.4398 24.1193 30.4471C24.1193 30.4544 24.1193 30.4617 24.1193 30.469C24.1193 30.4763 24.1193 30.4836 24.1193 30.4909C24.1193 30.4982 24.1193 30.5055 24.1193 30.5128C24.1193 30.5201 24.1193 30.5274 24.1193 30.5346C24.1193 30.5419 24.1193 30.5492 24.1193 30.5565C24.1193 30.5638 24.1193 30.5711 24.1193 30.5784C24.1193 30.5857 24.1193 30.593 24.1193 30.6003C24.1193 30.6076 24.1193 30.6149 24.1193 30.6222C24.1193 30.6295 24.1193 30.6368 24.1193 30.6441C24.1193 30.6514 24.1193 30.6587 24.1193 30.666C24.1193 30.6733 24.1193 30.6806 24.1193 30.6879C24.1193 30.6952 24.1193 30.7025 24.1193 30.7098C24.1193 30.7171 24.1193 30.7244 24.1193 30.7317C24.1193 30.739 24.1193 30.7463 24.1193 30.7536C24.1193 30.7609 24.1193 30.7682 24.1193 30.7755C24.1193 30.7827 24.1193 30.79 24.1193 30.7973C24.1193 30.8046 24.1193 30.8119 24.1193 30.8192C24.1193 30.8265 24.1193 30.8338 24.1193 30.8411C24.1193 30.8484 24.1193 30.8557 24.1193 30.863C24.1193 30.8703 24.1193 30.8775 24.1193 30.8848C24.1193 30.8921 24.1193 30.8994 24.1193 30.9067C24.1193 30.914 24.1193 30.9213 24.1193 30.9286C24.1193 30.9358 24.1193 30.9431 24.1193 30.9504C24.1193 30.9577 24.1193 30.965 24.1193 30.9723C24.1193 30.9795 24.1193 30.9868 24.1193 30.9941C24.1193 31.0014 24.1193 31.0087 24.1193 31.0159C24.1193 31.0232 24.1193 31.0305 24.1193 31.0378C24.1193 31.0451 24.1193 31.0523 24.1193 31.0596C24.1193 31.0669 24.1193 31.0742 24.1193 31.0814C24.1193 31.0887 24.1193 31.096 24.1193 31.1032C24.1193 31.1105 24.1193 31.1178 24.1193 31.1251C24.1193 31.1323 24.1193 31.1396 24.1193 31.1469C24.1193 31.1541 24.1193 31.1614 24.1193 31.1686C24.1193 31.1759 24.1193 31.1832 24.1193 31.1904C24.1193 31.1977 24.1193 31.2049 24.1193 31.2122C24.1193 31.2195 24.1193 31.2267 24.1193 31.234C24.1193 31.2412 24.1193 31.2485 24.1193 31.2557C24.1193 31.263 24.1193 31.2702 24.1193 31.2775C24.1193 31.2847 24.1193 31.292 24.1193 31.2992C24.1193 31.3065 24.1193 31.3137 24.1193 31.3209C24.1193 31.3282 24.1193 31.3354 24.1193 31.3427C24.1193 31.3499 24.1193 31.3571 24.1193 31.3644C24.1193 31.3716 24.1193 31.3788 24.1193 31.3861C24.1193 31.3933 24.1193 31.4005 24.1193 31.4077C24.1193 31.415 24.1193 31.4222 24.1193 31.4294C24.1193 31.4366 24.1193 31.4439 24.1193 31.4511C24.1193 31.4583 24.1193 31.4655 24.1193 31.4727C24.1193 31.4799 24.1193 31.4872 24.1193 31.4944C24.1193 31.5016 24.1193 31.5088 24.1193 31.516C24.1193 31.5232 24.1193 31.5304 24.1193 31.5376C24.1193 31.5448 24.1193 31.552 24.1193 31.5592C24.1193 31.5664 24.1193 31.5736 24.1193 31.5808C24.1193 31.588 24.1193 31.5952 24.1193 31.6024C24.1193 31.6095 24.1193 31.6167 24.1193 31.6239C24.1193 31.6311 24.1193 31.6383 24.1193 31.6454C24.1193 31.6526 24.1193 31.6598 24.1193 31.667C24.1193 31.6741 24.1193 31.6813 24.1193 31.6885C24.1193 31.6957 24.1193 31.7028 24.1193 31.71C24.1193 31.7171 24.1193 31.7243 24.1193 31.7315C24.1193 31.7386 24.1193 31.7458 24.1193 31.7529C24.1193 31.7601 24.1193 31.7672 24.1193 31.7744C24.1193 31.7815 24.1193 31.7887 24.1193 31.7958C24.1193 31.8029 24.1193 31.8101 24.1193 31.8172C24.1193 31.8244 24.1193 31.8315 24.1193 31.8386C24.1193 31.8457 24.1193 31.8529 24.1193 31.86C24.1193 31.8671 24.1193 31.8742 24.1193 31.8814C24.1193 31.8885 24.1193 31.8956 24.1193 31.9027C24.1193 31.9098 24.1193 31.9169 24.1193 31.924C24.1193 31.9311 24.1193 31.9382 24.1193 31.9453C24.1193 31.9524 24.1193 31.9595 24.1193 31.9666C24.1193 31.9737 24.1193 31.9808 24.1193 31.9879C24.1193 31.995 24.1193 32.002 24.1193 32.0091C24.1193 32.0162 24.1193 32.0233 24.1193 32.0303C24.1193 32.0374 24.1193 32.0445 24.1193 32.0515C24.1193 32.0586 24.1193 32.0657 24.1193 32.0727C24.1193 32.0798 24.1193 32.0868 24.1193 32.0939C24.1193 32.1009 24.1193 32.108 24.1193 32.115C24.1193 32.1221 24.1193 32.1291 24.1193 32.1362C24.1193 32.1432 24.1193 32.1502 24.1193 32.1573C24.1193 32.1643 24.1193 32.1713 24.1193 32.1783C24.1193 32.1854 24.1193 32.1924 24.1193 32.1994C24.1193 32.2064 24.1193 32.2134 24.1193 32.2204C24.1193 32.2274 24.1193 32.2344 24.1193 32.2414C24.1193 32.2484 24.1193 32.2554 24.1193 32.2624C24.1193 32.2694 24.1193 32.2764 24.1193 32.2834C24.1193 32.2903 24.1193 32.2973 24.1193 32.3043C24.1193 32.3113 24.1193 32.3182 24.1193 32.3252C24.1193 32.3322 24.1193 32.3391 24.1193 32.3461C24.1193 32.3531 24.1193 32.36 24.1193 32.367C24.1193 32.3739 24.1193 32.3809 24.1193 32.3878C24.1193 32.3947 24.1193 32.4017 24.1193 32.4086C24.1193 32.4155 24.1193 32.4225 24.1193 32.4294C24.1193 32.4363 24.1193 32.4432 24.1193 32.4501C24.1193 32.4571 24.1193 32.464 24.1193 32.4709C24.1193 32.4778 24.1193 32.4847 24.1193 32.4916C24.1193 32.4985 24.1193 32.5054 24.1193 32.5123C24.1193 32.5191 24.1193 32.526 24.1193 32.5329C24.1193 32.5398 24.1193 32.5467 24.1193 32.5535C24.1193 32.5604 24.1193 32.5673 24.1193 32.5741C24.1193 32.581 24.1193 32.5878 24.1193 32.5947C24.1193 32.6015 24.1193 32.6084 24.1193 32.6152C24.1193 32.6221 24.1193 32.6289 24.1193 32.6357C24.1193 32.6426 24.1193 32.6494 24.1193 32.6562C24.1193 32.663 24.1193 32.6698 24.1193 32.6767C24.1193 32.6835 24.1193 32.6903 24.1193 32.6971C24.1193 32.7039 24.1193 32.7107 24.1193 32.7175C24.1193 32.7243 24.1193 32.731 24.1193 32.7378C24.1193 32.7446 24.1193 32.7514 24.1193 32.7581C24.1193 32.7649 24.1193 32.7717 24.1193 32.7784C24.1193 32.7852 24.1193 32.792 24.1193 32.7987C24.1193 32.8054 24.1193 32.8122 24.1193 32.8189C24.1193 32.8257 24.1193 32.8324 24.1193 32.8391C24.1193 32.8459 24.1193 32.8526 24.1193 32.8593C24.1193 32.866 24.1193 32.8727 24.1193 32.8794C24.1193 32.8861 24.1193 32.8928 24.1193 32.8995C24.1193 32.9062 24.1193 32.9129 24.1193 32.9196C24.1193 32.9263 24.1193 32.933 24.1193 32.9396C24.1193 32.9463 24.1193 32.953 24.1193 32.9596C24.1193 32.9663 24.1193 32.9729 24.1193 32.9796C24.1193 32.9862 24.1193 32.9929 24.1193 32.9995C24.1193 33.0062 24.1193 33.0128 24.1193 33.0194C24.1193 33.026 24.1193 33.0327 24.1193 33.0393C24.1193 33.0459 24.1193 33.0525 24.1193 33.0591C24.1193 33.0657 24.1193 33.0723 24.1193 33.0789C24.1193 33.0855 24.1193 33.0921 24.1193 33.0986C24.1193 33.1052 24.1193 33.1118 24.1193 33.1184C24.1193 33.1249 24.1193 33.1315 24.1193 33.138C24.1193 33.1446 24.1193 33.1511 24.1193 33.1577C24.1193 33.1642 24.1193 33.1708 24.1193 33.1773C24.1193 33.1838 24.1193 33.1903 24.1193 33.1969C24.1193 33.2034 24.1193 33.2099 24.1193 33.2164C24.1193 33.2229 24.1193 33.2294 24.1193 33.2359C24.1193 33.2424 24.1193 33.2488 24.1193 33.2553C24.1193 33.2618 24.1193 33.2683 24.1193 33.2747C24.1193 33.2812 24.1193 33.2877 24.1193 33.2941C24.1193 33.3006 24.1193 33.307 24.1193 33.3134C24.1193 33.3199 24.1193 33.3263 24.1193 33.3327C24.1193 33.3392 24.1193 33.3456 24.1193 33.352C24.1193 33.3584 24.1193 33.3648 24.1193 33.3712C24.1193 33.3776 24.1193 33.384 24.1193 33.3904C24.1193 33.3968 24.1193 33.4031 24.1193 33.4095C24.1193 33.4159 24.1193 33.4222 24.1193 33.4286L21.1193 33.4286Z" fill="#AFE5FF"/>
<path d="M50 26.5952C50.8284 26.5952 51.5 25.9237 51.5 25.0952C51.5 24.2668 50.8284 23.5952 50 23.5952L50 26.5952ZM4.87328e-07 23.5952C-0.828427 23.5952 -1.5 24.2668 -1.5 25.0952C-1.5 25.9237 -0.828427 26.5952 4.66346e-07 26.5952L4.87328e-07 23.5952ZM27.9762 26.5952L50 26.5952L50 23.5952L27.9762 23.5952L27.9762 26.5952ZM22.619 23.5952L4.87328e-07 23.5952L4.66346e-07 26.5952L22.619 26.5952L22.619 23.5952Z" fill="#AFE5FF"/>
</g>
<defs>
<clipPath id="clip0_1_4">
<rect width="50" height="50" fill="white"/>
</clipPath>
</defs>
</svg>
