<svg width="50" height="50" viewBox="0 0 50 50" fill="none" xmlns="http://www.w3.org/2000/svg">
<circle cx="25" cy="25" r="24" fill="white"/>
<path d="M28.1432 24.2036L33.797 29.9139C34.532 30.5924 34.532 31.7231 33.797 32.4016L32.5532 33.6454C31.8747 34.3804 30.744 34.3804 30.0655 33.6454L24.4117 27.9916L18.7014 33.6454C18.023 34.3804 16.8922 34.3804 16.2138 33.6454L14.97 32.4016C14.235 31.7231 14.235 30.5924 14.97 29.9139L20.6237 24.2036L14.97 18.5498C14.235 17.8714 14.235 16.7406 14.97 16.0622L16.2138 14.8184C16.8922 14.0834 18.023 14.0834 18.7014 14.8184L24.4117 20.4721L30.0655 14.8184C30.744 14.0834 31.8747 14.0834 32.5532 14.8184L33.797 16.0622C34.532 16.7406 34.532 17.8714 33.797 18.5498L28.1432 24.2036Z" fill="#FD4D50"/>
</svg>
