<svg width="50" height="50" viewBox="0 0 50 50" fill="none" xmlns="http://www.w3.org/2000/svg">
<g clip-path="url(#clip0_1_2)">
<path d="M5 25C5 22.5147 7.01472 20.5 9.5 20.5H25H40.5C42.9853 20.5 45 22.5147 45 25V25C45 27.4853 42.9853 29.5 40.5 29.5H25H9.5C7.01472 29.5 5 27.4853 5 25V25Z" fill="white"/>
<path d="M0 25H9L11 22L13 25L15 28L17 25L19 22L21 25L23 28L25 25L27 22L29 25L31 28L33 25L35 22L37 25L39 28L41 25H50" stroke="#00ACFF" stroke-width="3" stroke-linecap="round" stroke-linejoin="round"/>
</g>
<defs>
<clipPath id="clip0_1_2">
<rect width="50" height="50" fill="white"/>
</clipPath>
</defs>
</svg>
